<svg width="8954" height="3954" viewBox="0 0 8954 3954" fill="none" xmlns="http://www.w3.org/2000/svg">
<mask id="mask0_555_252" style="mask-type:luminance" maskUnits="userSpaceOnUse" x="-24" y="-24" width="9001" height="4001">
<path d="M8976.69 -23.1599H-23.3105V3976.84H8976.69V-23.1599Z" fill="white"/>
</mask>
<g mask="url(#mask0_555_252)">
<path fill-rule="evenodd" clip-rule="evenodd" d="M357.2 130.84L245.93 20.31L134.69 130.84L23.36 241.44L134.69 352L245.93 462.57L357.2 352L468.49 241.44L357.2 130.84ZM357.2 619.53L245.93 508.99L134.69 619.56L23.36 730.12L134.69 840.68L245.93 951.25L357.2 840.68L468.49 730.12L357.2 619.53ZM357.2 1108.22L245.93 997.68L134.69 1108.25L23.36 1218.84L134.69 1329.37L245.93 1439.94L357.2 1329.37L468.49 1218.84L357.2 1108.22ZM357.2 1596.91L245.93 1486.37L134.69 1596.94L23.36 1707.5L134.69 1818.06L245.97 1928.63L357.24 1818.06L468.49 1707.5L357.2 1596.91ZM357.2 2085.59L245.93 1975.05L134.69 2085.62L23.36 2196.18L134.69 2306.75L245.97 2417.31L357.24 2306.75L468.49 2196.18L357.2 2085.59ZM357.2 2574.28L245.93 2463.74L134.69 2574.31L23.36 2684.84L134.69 2795.43L245.97 2906L357.24 2795.43L468.49 2684.84L357.2 2574.28ZM357.2 3062.97L245.93 2952.43L134.69 3063L23.36 3173.56L134.69 3284.12L245.97 3394.69L357.24 3284.12L468.49 3173.56L357.2 3062.97ZM357.2 3551.65L245.93 3441.12L134.69 3551.68L23.36 3662.24L134.69 3772.84L245.97 3883.41L357.2 3772.84L468.49 3662.24L357.2 3551.65ZM722.92 378.12L611.69 267.55L500.37 378.12L389.09 488.68L500.37 599.25L611.69 709.84L722.92 599.25L834.21 488.68L722.92 378.12ZM722.92 866.81L611.69 756.24L500.37 866.84L389.09 977.37L500.37 1087.93L611.69 1198.5L722.96 1087.93L834.25 977.37L722.92 866.81ZM722.92 1355.5L611.69 1244.93L500.37 1355.5L389.09 1466.06L500.37 1576.62L611.69 1687.19L722.96 1576.62L834.25 1466.06L722.92 1355.5ZM722.92 1844.18L611.69 1733.62L500.37 1844.18L389.09 1954.75L500.37 2065.31L611.69 2175.84L722.96 2065.28L834.25 1954.72L722.92 1844.18ZM722.92 2332.87L611.69 2222.3L500.37 2332.84L389.09 2443.43L500.37 2553.99L611.69 2664.56L722.96 2553.99L834.25 2443.43L722.92 2332.87ZM722.92 2821.56L611.69 2710.99L500.37 2821.56L389.09 2932.12L500.37 3042.68L611.69 3153.25L722.96 3042.68L834.25 2932.12L722.92 2821.56ZM722.92 3310.24L611.69 3199.68L500.37 3310.24L389.09 3420.84L500.37 3531.4L611.69 3641.93L722.96 3531.37L834.21 3420.84L722.92 3310.24ZM1084.16 130.84L972.88 20.31L861.6 130.84L750.32 241.44L861.6 352L972.88 462.57L1084.16 352L1195.44 241.44L1084.16 130.84ZM1084.16 619.53L972.88 508.99L861.6 619.56L750.32 730.12L861.6 840.68L972.88 951.25L1084.16 840.68L1195.44 730.12L1084.16 619.53ZM1084.16 1108.22L972.88 997.68L861.6 1108.25L750.32 1218.84L861.6 1329.4L972.88 1439.94L1084.16 1329.37L1195.44 1218.84L1084.16 1108.22ZM1084.16 1596.91L972.88 1486.37L861.6 1596.94L750.32 1707.5L861.6 1818.06L972.88 1928.63L1084.16 1818.06L1195.44 1707.5L1084.16 1596.91ZM1084.16 2085.59L972.88 1975.05L861.6 2085.62L750.32 2196.18L861.6 2306.75L972.88 2417.31L1084.16 2306.75L1195.44 2196.18L1084.16 2085.59ZM1084.16 2574.28L972.88 2463.74L861.6 2574.31L750.32 2684.84L861.6 2795.4L972.88 2905.97L1084.16 2795.4L1195.44 2684.84L1084.16 2574.28ZM1084.16 3062.97L972.88 2952.43L861.6 3063L750.32 3173.56L861.6 3284.12L972.88 3394.69L1084.16 3284.12L1195.44 3173.56L1084.16 3062.97ZM1084.16 3551.65L972.88 3441.12L861.6 3551.68L750.32 3662.24L861.6 3772.84L972.88 3883.41L1084.16 3772.84L1195.44 3662.28L1084.16 3551.65ZM1449.88 378.12L1338.6 267.55L1227.32 378.12L1116.04 488.68L1227.32 599.25L1338.6 709.84L1449.88 599.28L1561.16 488.71L1449.88 378.12ZM1449.88 866.81L1338.6 756.24L1227.32 866.84L1116.04 977.4L1227.32 1087.96L1338.6 1198.53L1449.88 1087.96L1561.16 977.4L1449.88 866.81ZM1449.88 1355.5L1338.6 1244.93L1227.32 1355.5L1116.04 1466.06L1227.32 1576.62L1338.6 1687.19L1449.88 1576.62L1561.16 1466.06L1449.88 1355.5ZM1449.88 1844.18L1338.6 1733.62L1227.32 1844.18L1116.04 1954.75L1227.32 2065.31L1338.6 2175.84L1449.88 2065.28L1561.16 1954.72L1449.88 1844.18ZM1449.88 2332.87L1338.6 2222.3L1227.32 2332.84L1116.04 2443.4L1227.32 2553.96L1338.6 2664.53L1449.88 2553.96L1561.16 2443.4L1449.88 2332.87ZM1449.88 2821.56L1338.6 2710.99L1227.32 2821.56L1116.04 2932.12L1227.32 3042.68L1338.6 3153.25L1449.88 3042.68L1561.16 2932.12L1449.88 2821.56ZM1449.88 3310.24L1338.6 3199.68L1227.32 3310.24L1116.04 3420.84L1227.32 3531.4L1338.6 3641.96L1449.88 3531.4L1561.16 3420.84L1449.88 3310.24ZM1811.11 130.84L1699.83 20.31L1588.55 130.84L1477.27 241.44L1588.55 352L1699.83 462.57L1811.11 352L1922.39 241.44L1811.11 130.84ZM1811.11 619.53L1699.83 508.99L1588.55 619.56L1477.27 730.12L1588.55 840.68L1699.83 951.25L1811.11 840.68L1922.39 730.12L1811.11 619.53ZM1811.11 1108.22L1699.83 997.65L1588.55 1108.22L1477.27 1218.84L1588.55 1329.4L1699.83 1439.97L1811.11 1329.4L1922.39 1218.84L1811.11 1108.22ZM1811.11 1596.91L1699.83 1486.34L1588.55 1596.94L1477.27 1707.5L1588.55 1818.06L1699.83 1928.63L1811.11 1818.06L1922.39 1707.5L1811.11 1596.91ZM1811.11 2085.59L1699.83 1975.02L1588.55 2085.59L1477.27 2196.15L1588.55 2306.72L1699.83 2417.28L1811.11 2306.72L1922.39 2196.15L1811.11 2085.59ZM1811.11 2574.28L1699.83 2463.74L1588.55 2574.31L1477.27 2684.84L1588.55 2795.4L1699.83 2905.97L1811.11 2795.4L1922.39 2684.84L1811.11 2574.28ZM1811.11 3062.97L1699.83 2952.4L1588.55 3062.97L1477.27 3173.53L1588.55 3284.09L1699.83 3394.66L1811.11 3284.09L1922.39 3173.53L1811.11 3062.97ZM1811.11 3551.65L1699.83 3441.09L1588.55 3551.65L1477.27 3662.24L1588.55 3772.84L1699.83 3883.41L1811.11 3772.84L1922.39 3662.24L1811.11 3551.65ZM2176.83 378.12L2065.55 267.55L1954.27 378.12L1842.99 488.68L1954.27 599.25L2065.55 709.84L2176.83 599.28L2288.11 488.71L2176.83 378.12ZM2176.83 866.81L2065.55 756.24L1954.27 866.84L1842.99 977.37L1954.27 1087.93L2065.55 1198.5L2176.83 1087.93L2288.11 977.37L2176.83 866.81ZM2176.83 1355.5L2065.55 1244.93L1954.27 1355.5L1842.99 1466.06L1954.27 1576.62L2065.55 1687.19L2176.83 1576.62L2288.11 1466.06L2176.83 1355.5ZM2176.83 1844.18L2065.55 1733.62L1954.27 1844.18L1842.99 1954.75L1954.27 2065.31L2065.55 2175.84L2176.83 2065.28L2288.11 1954.72L2176.83 1844.18ZM2176.83 2332.87L2065.55 2222.3L1954.27 2332.84L1842.99 2443.43L1954.27 2553.99L2065.55 2664.56L2176.83 2553.99L2288.11 2443.43L2176.83 2332.87ZM2176.83 2821.56L2065.55 2710.99L1954.27 2821.56L1842.99 2932.12L1954.27 3042.68L2065.55 3153.25L2176.83 3042.68L2288.11 2932.12L2176.83 2821.56ZM2176.83 3310.24L2065.55 3199.68L1954.27 3310.24L1842.99 3420.84L1954.27 3531.4L2065.55 3641.96L2176.83 3531.4L2288.11 3420.84L2176.83 3310.24ZM2538.06 130.84L2426.78 20.31L2315.5 130.84L2204.22 241.44L2315.5 352L2426.78 462.57L2538.06 352L2649.34 241.44L2538.06 130.84ZM2538.06 619.53L2426.78 508.99L2315.5 619.56L2204.22 730.12L2315.5 840.68L2426.78 951.25L2538.06 840.68L2649.34 730.12L2538.06 619.53ZM2538.06 1108.22L2426.78 997.65L2315.5 1108.22L2204.22 1218.84L2315.5 1329.4L2426.78 1439.97L2538.06 1329.4L2649.34 1218.84L2538.06 1108.22ZM2538.06 1596.91L2426.78 1486.34L2315.5 1596.94L2204.22 1707.5L2315.5 1818.06L2426.78 1928.63L2538.06 1818.06L2649.34 1707.5L2538.06 1596.91ZM2538.06 2085.59L2426.78 1975.02L2315.5 2085.59L2204.22 2196.15L2315.5 2306.72L2426.78 2417.28L2538.06 2306.72L2649.34 2196.15L2538.06 2085.59ZM2538.06 2574.28L2426.78 2463.74L2315.5 2574.31L2204.22 2684.84L2315.5 2795.4L2426.78 2905.97L2538.06 2795.4L2649.34 2684.84L2538.06 2574.28ZM2538.06 3062.97L2426.78 2952.4L2315.5 3062.97L2204.22 3173.53L2315.5 3284.09L2426.78 3394.66L2538.06 3284.09L2649.34 3173.53L2538.06 3062.97ZM2538.06 3551.65L2426.78 3441.09L2315.5 3551.65L2204.22 3662.24L2315.5 3772.84L2426.78 3883.41L2538.06 3772.84L2649.34 3662.28L2538.06 3551.65ZM2903.78 378.12L2792.5 267.55L2681.23 378.12L2569.94 488.68L2681.23 599.25L2792.5 709.84L2903.78 599.28L3015.06 488.71L2903.78 378.12ZM2903.78 866.81L2792.5 756.24L2681.23 866.84L2569.94 977.4L2681.23 1087.96L2792.5 1198.53L2903.78 1087.96L3015.06 977.4L2903.78 866.81ZM2903.78 1355.5L2792.5 1244.93L2681.23 1355.5L2569.94 1466.06L2681.23 1576.62L2792.5 1687.19L2903.78 1576.62L3015.06 1466.06L2903.78 1355.5ZM2903.78 1844.18L2792.5 1733.62L2681.23 1844.18L2569.94 1954.75L2681.23 2065.31L2792.5 2175.84L2903.78 2065.28L3015.06 1954.72L2903.78 1844.18ZM2903.78 2332.87L2792.5 2222.3L2681.23 2332.84L2569.94 2443.4L2681.23 2553.96L2792.5 2664.53L2903.78 2553.96L3015.06 2443.4L2903.78 2332.87ZM2903.78 2821.56L2792.5 2710.99L2681.23 2821.56L2569.94 2932.12L2681.23 3042.68L2792.5 3153.25L2903.78 3042.68L3015.06 2932.12L2903.78 2821.56ZM2903.78 3310.24L2792.5 3199.68L2681.23 3310.24L2569.94 3420.84L2681.23 3531.4L2792.5 3641.96L2903.78 3531.4L3015.06 3420.84L2903.78 3310.24ZM3265.01 130.84L3153.69 20.31L3042.46 130.84L2931.17 241.44L3042.46 352L3153.69 462.57L3264.97 352L3376.29 241.44L3265.01 130.84ZM3265.01 619.53L3153.69 508.99L3042.46 619.56L2931.17 730.12L3042.46 840.68L3153.69 951.25L3264.97 840.68L3376.29 730.12L3265.01 619.53ZM3265.01 1108.22L3153.69 997.68L3042.42 1108.25L2931.17 1218.84L3042.46 1329.4L3153.69 1439.94L3264.97 1329.37L3376.29 1218.84L3265.01 1108.22ZM3265.01 1596.91L3153.69 1486.37L3042.46 1596.94L2931.17 1707.5L3042.46 1818.06L3153.69 1928.63L3264.97 1818.06L3376.25 1707.5L3265.01 1596.91ZM3265.01 2085.59L3153.69 1975.05L3042.42 2085.62L2931.13 2196.18L3042.42 2306.75L3153.69 2417.31L3264.97 2306.75L3376.25 2196.18L3265.01 2085.59ZM3265.01 2574.28L3153.69 2463.74L3042.42 2574.31L2931.17 2684.84L3042.46 2795.4L3153.69 2906L3264.97 2795.43L3376.29 2684.84L3265.01 2574.28ZM3265.01 3062.97L3153.69 2952.43L3042.42 3063L2931.13 3173.56L3042.42 3284.12L3153.69 3394.69L3264.97 3284.12L3376.25 3173.56L3265.01 3062.97ZM3265.01 3551.65L3153.69 3441.12L3042.42 3551.68L2931.17 3662.24L3042.46 3772.84L3153.69 3883.37L3265.01 3772.84L3376.29 3662.24L3265.01 3551.65ZM3630.69 378.12L3519.45 267.55L3408.18 378.12L3296.89 488.68L3408.18 599.25L3519.45 709.84L3630.69 599.25L3741.98 488.68L3630.69 378.12ZM3630.69 866.84L3519.45 756.24L3408.18 866.84L3296.89 977.37L3408.18 1087.93L3519.45 1198.5L3630.69 1087.93L3741.98 977.37L3630.69 866.84ZM3630.69 1355.53L3519.41 1244.96L3408.14 1355.53L3296.89 1466.06L3408.18 1576.62L3519.45 1687.19L3630.69 1576.62L3741.98 1466.06L3630.69 1355.53ZM3630.69 1844.21L3519.41 1733.65L3408.14 1844.21L3296.89 1954.75L3408.18 2065.31L3519.45 2175.84L3630.69 2065.31L3741.98 1954.75L3630.69 1844.21ZM3630.69 2332.9L3519.41 2222.33L3408.18 2332.84L3296.89 2443.43L3408.18 2553.99L3519.45 2664.56L3630.69 2553.99L3741.98 2443.43L3630.69 2332.9ZM3630.69 2821.59L3519.41 2711.02L3408.14 2821.59L3296.89 2932.12L3408.18 3042.68L3519.45 3153.25L3630.69 3042.68L3741.98 2932.12L3630.69 2821.59ZM3630.69 3310.27L3519.41 3199.71L3408.18 3310.24L3296.89 3420.84L3408.18 3531.4L3519.45 3641.96L3630.69 3531.37L3742.02 3420.84L3630.69 3310.27ZM3991.96 130.84L3880.69 20.31L3769.41 130.84L3658.12 241.44L3769.41 352L3880.69 462.57L3991.97 352L4103.24 241.44L3991.96 130.84ZM3991.96 619.53L3880.69 508.99L3769.41 619.56L3658.12 730.12L3769.41 840.68L3880.69 951.25L3991.97 840.68L4103.25 730.12L3991.96 619.53ZM3991.96 1108.22L3880.69 997.68L3769.42 1108.25L3658.12 1218.84L3769.41 1329.4L3880.69 1439.94L3991.97 1329.37L4103.24 1218.84L3991.96 1108.22ZM3991.96 1596.91L3880.69 1486.37L3769.41 1596.94L3658.12 1707.5L3769.41 1818.06L3880.69 1928.63L3991.97 1818.06L4103.25 1707.5L3991.96 1596.91ZM3991.96 2085.59L3880.69 1975.05L3769.42 2085.62L3658.13 2196.18L3769.42 2306.75L3880.69 2417.31L3991.97 2306.75L4103.25 2196.18L3991.96 2085.59ZM3991.96 2574.28L3880.69 2463.74L3769.42 2574.31L3658.12 2684.84L3769.41 2795.4L3880.69 2906L3991.97 2795.43L4103.24 2684.84L3991.96 2574.28ZM3991.96 3062.97L3880.69 2952.43L3769.42 3063L3658.13 3173.56L3769.42 3284.12L3880.69 3394.69L3991.97 3284.12L4103.25 3173.56L3991.96 3062.97ZM3991.96 3551.65L3880.69 3441.12L3769.42 3551.68L3658.12 3662.24L3769.41 3772.84L3880.69 3883.37L3991.96 3772.84L4103.24 3662.28L3991.96 3551.65ZM4357.69 378.12L4246.41 267.55L4135.13 378.12L4023.84 488.68L4135.13 599.25L4246.41 709.84L4357.69 599.25L4468.98 488.68L4357.69 378.12ZM4357.69 866.84L4246.41 756.24L4135.13 866.84L4023.84 977.4L4135.13 1087.96L4246.41 1198.53L4357.69 1087.93L4468.98 977.37L4357.69 866.84ZM4357.69 1355.53L4246.42 1244.96L4135.14 1355.53L4023.85 1466.09L4135.14 1576.65L4246.42 1687.22L4357.69 1576.62L4468.98 1466.06L4357.69 1355.53ZM4357.69 1844.21L4246.42 1733.65L4135.14 1844.21L4023.85 1954.78L4135.14 2065.34L4246.41 2175.84L4357.69 2065.31L4468.98 1954.75L4357.69 1844.21ZM4357.69 2332.9L4246.42 2222.33L4135.13 2332.84L4023.84 2443.4L4135.13 2553.96L4246.41 2664.53L4357.69 2553.99L4468.98 2443.43L4357.69 2332.9ZM4357.69 2821.59L4246.42 2711.02L4135.14 2821.59L4023.85 2932.15L4135.14 3042.71L4246.42 3153.28L4357.69 3042.68L4468.98 2932.12L4357.69 2821.59ZM4357.69 3310.27L4246.42 3199.71L4135.13 3310.24L4023.84 3420.84L4135.13 3531.4L4246.41 3641.96L4357.69 3531.37L4468.97 3420.84L4357.69 3310.27ZM4718.91 130.84L4607.69 20.31L4496.36 130.84L4385.08 241.44L4496.36 352L4607.69 462.57L4718.96 352L4830.2 241.44L4718.91 130.84ZM4718.91 619.53L4607.69 508.99L4496.36 619.56L4385.08 730.12L4496.36 840.68L4607.69 951.25L4718.96 840.68L4830.25 730.12L4718.91 619.53ZM4718.91 1108.22L4607.69 997.68L4496.41 1108.25L4385.08 1218.84L4496.36 1329.4L4607.69 1439.94L4718.96 1329.37L4830.2 1218.84L4718.91 1108.22ZM4718.91 1596.91L4607.69 1486.37L4496.36 1596.94L4385.08 1707.5L4496.36 1818.06L4607.69 1928.63L4718.96 1818.06L4830.25 1707.5L4718.91 1596.91ZM4718.91 2085.59L4607.69 1975.05L4496.41 2085.62L4385.13 2196.18L4496.41 2306.75L4607.69 2417.31L4718.96 2306.75L4830.25 2196.18L4718.91 2085.59ZM4718.91 2574.28L4607.69 2463.74L4496.41 2574.31L4385.08 2684.84L4496.36 2795.4L4607.69 2906L4718.96 2795.43L4830.2 2684.84L4718.91 2574.28ZM4718.91 3062.97L4607.69 2952.43L4496.41 3063L4385.13 3173.56L4496.41 3284.12L4607.69 3394.69L4718.96 3284.12L4830.25 3173.56L4718.91 3062.97ZM4718.91 3551.65L4607.69 3441.12L4496.41 3551.68L4385.08 3662.24L4496.36 3772.84L4607.69 3883.37L4718.91 3772.84L4830.2 3662.28L4718.91 3551.65ZM5084.69 378.12L4973.36 267.55L4862.08 378.12L4750.8 488.68L4862.08 599.25L4973.36 709.84L5084.69 599.25L5195.97 488.68L5084.69 378.12ZM5084.69 866.84L4973.36 756.24L4862.08 866.84L4750.8 977.4L4862.08 1087.96L4973.36 1198.53L5084.69 1087.93L5195.97 977.37L5084.69 866.84ZM5084.69 1355.53L4973.41 1244.96L4862.13 1355.53L4750.85 1466.09L4862.13 1576.65L4973.41 1687.22L5084.69 1576.62L5195.97 1466.06L5084.69 1355.53ZM5084.69 1844.21L4973.41 1733.65L4862.13 1844.21L4750.85 1954.78L4862.13 2065.34L4973.36 2175.84L5084.69 2065.31L5195.97 1954.75L5084.69 1844.21ZM5084.69 2332.9L4973.41 2222.33L4862.08 2332.84L4750.8 2443.4L4862.08 2553.96L4973.36 2664.53L5084.69 2553.99L5195.97 2443.43L5084.69 2332.9ZM5084.69 2821.59L4973.41 2711.02L4862.13 2821.59L4750.85 2932.15L4862.13 3042.71L4973.41 3153.28L5084.69 3042.68L5195.97 2932.12L5084.69 2821.59ZM5084.69 3310.27L4973.41 3199.71L4862.08 3310.24L4750.8 3420.84L4862.08 3531.4L4973.36 3641.96L5084.69 3531.37L5195.92 3420.84L5084.69 3310.27ZM5445.86 130.84L5334.59 20.31L5223.31 130.84L5112.03 241.44L5223.31 352L5334.59 462.57L5445.86 352L5557.15 241.44L5445.86 130.84ZM5445.86 619.53L5334.59 508.99L5223.31 619.56L5112.03 730.12L5223.31 840.68L5334.59 951.25L5445.86 840.68L5557.15 730.12L5445.86 619.53ZM5445.86 1108.22L5334.59 997.68L5223.31 1108.25L5112.03 1218.84L5223.31 1329.4L5334.59 1439.94L5445.86 1329.37L5557.15 1218.84L5445.86 1108.22ZM5445.86 1596.91L5334.59 1486.37L5223.31 1596.94L5112.03 1707.5L5223.31 1818.06L5334.59 1928.63L5445.86 1818.06L5557.15 1707.5L5445.86 1596.91ZM5445.86 2085.59L5334.59 1975.05L5223.31 2085.62L5112.03 2196.18L5223.31 2306.75L5334.59 2417.31L5445.86 2306.75L5557.15 2196.18L5445.86 2085.59ZM5445.86 2574.28L5334.59 2463.74L5223.31 2574.31L5112.03 2684.84L5223.31 2795.4L5334.59 2905.97L5445.86 2795.4L5557.15 2684.84L5445.86 2574.28ZM5445.86 3062.97L5334.59 2952.43L5223.31 3063L5112.03 3173.56L5223.31 3284.12L5334.59 3394.69L5445.86 3284.12L5557.15 3173.56L5445.86 3062.97ZM5445.86 3551.65L5334.59 3441.12L5223.31 3551.68L5112.03 3662.24L5223.31 3772.84L5334.59 3883.41L5445.86 3772.84L5557.15 3662.28L5445.86 3551.65ZM5811.59 378.12L5700.31 267.55L5589.03 378.12L5477.75 488.68L5589.03 599.25L5700.31 709.84L5811.59 599.25L5922.87 488.68L5811.59 378.12ZM5811.59 866.81L5700.31 756.24L5589.03 866.84L5477.75 977.4L5589.03 1087.96L5700.31 1198.53L5811.59 1087.96L5922.87 977.4L5811.59 866.81ZM5811.59 1355.5L5700.31 1244.93L5589.03 1355.5L5477.75 1466.06L5589.03 1576.62L5700.31 1687.19L5811.59 1576.62L5922.87 1466.06L5811.59 1355.5ZM5811.59 1844.18L5700.31 1733.62L5589.03 1844.18L5477.75 1954.75L5589.03 2065.31L5700.31 2175.84L5811.59 2065.28L5922.87 1954.72L5811.59 1844.18ZM5811.59 2332.87L5700.31 2222.3L5589.03 2332.84L5477.75 2443.4L5589.03 2553.96L5700.31 2664.53L5811.59 2553.96L5922.87 2443.4L5811.59 2332.87ZM5811.59 2821.56L5700.31 2710.99L5589.03 2821.56L5477.75 2932.12L5589.03 3042.68L5700.31 3153.25L5811.59 3042.68L5922.87 2932.12L5811.59 2821.56ZM5811.59 3310.24L5700.31 3199.68L5589.03 3310.24L5477.75 3420.84L5589.03 3531.4L5700.31 3641.96L5811.59 3531.4L5922.87 3420.84L5811.59 3310.24ZM6172.82 130.84L6061.54 20.31L5950.26 130.84L5838.98 241.44L5950.26 352L6061.54 462.57L6172.82 352L6284.1 241.44L6172.82 130.84ZM6172.82 619.53L6061.54 508.99L5950.26 619.56L5838.98 730.12L5950.26 840.68L6061.54 951.25L6172.82 840.68L6284.1 730.12L6172.82 619.53ZM6172.82 1108.22L6061.54 997.65L5950.26 1108.22L5838.98 1218.84L5950.26 1329.4L6061.54 1439.97L6172.82 1329.4L6284.1 1218.84L6172.82 1108.22ZM6172.82 1596.91L6061.54 1486.34L5950.26 1596.94L5838.98 1707.5L5950.26 1818.06L6061.54 1928.63L6172.82 1818.06L6284.1 1707.5L6172.82 1596.91ZM6172.82 2085.59L6061.54 1975.02L5950.26 2085.59L5838.98 2196.15L5950.26 2306.72L6061.54 2417.28L6172.82 2306.72L6284.1 2196.15L6172.82 2085.59ZM6172.82 2574.28L6061.54 2463.74L5950.26 2574.31L5838.98 2684.84L5950.26 2795.4L6061.54 2905.97L6172.82 2795.4L6284.1 2684.84L6172.82 2574.28ZM6172.82 3062.97L6061.54 2952.4L5950.26 3062.97L5838.98 3173.53L5950.26 3284.09L6061.54 3394.66L6172.82 3284.09L6284.1 3173.53L6172.82 3062.97ZM6172.82 3551.65L6061.54 3441.09L5950.26 3551.65L5838.98 3662.24L5950.26 3772.84L6061.54 3883.41L6172.82 3772.84L6284.1 3662.28L6172.82 3551.65ZM6538.54 378.12L6427.26 267.55L6315.98 378.12L6204.69 488.68L6315.97 599.25L6427.26 709.84L6538.54 599.28L6649.82 488.71L6538.54 378.12ZM6538.54 866.81L6427.26 756.24L6315.98 866.84L6204.69 977.37L6315.97 1087.93L6427.25 1198.5L6538.53 1087.93L6649.81 977.37L6538.54 866.81ZM6538.54 1355.5L6427.26 1244.93L6315.98 1355.5L6204.69 1466.06L6315.97 1576.62L6427.25 1687.19L6538.53 1576.62L6649.81 1466.06L6538.54 1355.5ZM6538.54 1844.18L6427.26 1733.62L6315.98 1844.18L6204.69 1954.75L6315.97 2065.31L6427.26 2175.84L6538.54 2065.28L6649.82 1954.72L6538.54 1844.18ZM6538.54 2332.87L6427.26 2222.3L6315.98 2332.84L6204.69 2443.43L6315.97 2553.99L6427.25 2664.56L6538.53 2553.99L6649.81 2443.43L6538.54 2332.87ZM6538.54 2821.56L6427.26 2710.99L6315.98 2821.56L6204.69 2932.12L6315.97 3042.68L6427.25 3153.25L6538.53 3042.68L6649.81 2932.12L6538.54 2821.56ZM6538.54 3310.24L6427.26 3199.68L6315.98 3310.24L6204.69 3420.84L6315.97 3531.4L6427.25 3641.96L6538.53 3531.4L6649.82 3420.84L6538.54 3310.24ZM6899.77 130.84L6788.49 20.31L6677.21 130.84L6565.93 241.44L6677.21 352L6788.49 462.57L6899.77 352L7011.05 241.44L6899.77 130.84ZM6899.77 619.53L6788.49 508.99L6677.21 619.56L6565.93 730.12L6677.21 840.68L6788.49 951.25L6899.77 840.68L7011.05 730.12L6899.77 619.53ZM6899.77 1108.22L6788.49 997.68L6677.21 1108.25L6565.93 1218.84L6677.21 1329.4L6788.49 1439.94L6899.77 1329.37L7011.05 1218.84L6899.77 1108.22ZM6899.77 1596.91L6788.49 1486.37L6677.21 1596.94L6565.93 1707.5L6677.21 1818.06L6788.49 1928.63L6899.77 1818.06L7011.05 1707.5L6899.77 1596.91ZM6899.77 2085.59L6788.49 1975.05L6677.21 2085.62L6565.93 2196.18L6677.21 2306.75L6788.49 2417.31L6899.77 2306.75L7011.05 2196.18L6899.77 2085.59ZM6899.77 2574.28L6788.49 2463.74L6677.21 2574.31L6565.93 2684.84L6677.21 2795.4L6788.49 2905.97L6899.77 2795.4L7011.05 2684.84L6899.77 2574.28ZM6899.77 3062.97L6788.49 2952.43L6677.21 3063L6565.93 3173.56L6677.21 3284.12L6788.49 3394.69L6899.77 3284.12L7011.05 3173.56L6899.77 3062.97ZM6899.77 3551.65L6788.49 3441.12L6677.21 3551.68L6565.93 3662.24L6677.21 3772.84L6788.49 3883.41L6899.77 3772.84L7011.05 3662.28L6899.77 3551.65ZM7265.49 378.12L7154.21 267.55L7042.93 378.12L6931.69 488.68L7042.97 599.25L7154.21 709.84L7265.49 599.25L7376.77 488.68L7265.49 378.12ZM7265.49 866.81L7154.21 756.24L7042.93 866.84L6931.69 977.37L7042.97 1087.93L7154.25 1198.5L7265.53 1087.93L7376.81 977.37L7265.49 866.81ZM7265.49 1355.5L7154.21 1244.93L7042.93 1355.5L6931.69 1466.06L7042.97 1576.62L7154.25 1687.19L7265.53 1576.62L7376.81 1466.06L7265.49 1355.5ZM7265.49 1844.18L7154.21 1733.62L7042.93 1844.18L6931.69 1954.75L7042.97 2065.31L7154.21 2175.84L7265.49 2065.28L7376.77 1954.72L7265.49 1844.18ZM7265.49 2332.87L7154.21 2222.3L7042.93 2332.84L6931.69 2443.43L7042.97 2553.99L7154.25 2664.56L7265.53 2553.99L7376.81 2443.43L7265.49 2332.87ZM7265.49 2821.56L7154.21 2710.99L7042.93 2821.56L6931.69 2932.12L7042.97 3042.68L7154.25 3153.25L7265.53 3042.68L7376.81 2932.12L7265.49 2821.56ZM7265.49 3310.24L7154.21 3199.68L7042.93 3310.24L6931.69 3420.84L7042.97 3531.4L7154.25 3641.96L7265.53 3531.4L7376.77 3420.84L7265.49 3310.24ZM7626.69 130.84L7515.44 20.31L7404.16 130.84L7292.88 241.44L7404.16 352L7515.44 462.57L7626.69 352L7738 241.44L7626.69 130.84ZM7626.69 619.53L7515.44 508.99L7404.16 619.56L7292.88 730.12L7404.16 840.68L7515.44 951.25L7626.69 840.68L7737.97 730.12L7626.69 619.53ZM7626.69 1108.22L7515.41 997.65L7404.13 1108.22L7292.88 1218.84L7404.16 1329.4L7515.44 1439.97L7626.69 1329.37L7738 1218.84L7626.69 1108.22ZM7626.69 1596.91L7515.41 1486.34L7404.16 1596.94L7292.88 1707.5L7404.16 1818.06L7515.44 1928.63L7626.69 1818.06L7737.97 1707.5L7626.69 1596.91ZM7626.69 2085.59L7515.41 1975.02L7404.13 2085.59L7292.85 2196.15L7404.13 2306.72L7515.41 2417.28L7626.69 2306.75L7737.97 2196.18L7626.69 2085.59ZM7626.69 2574.28L7515.44 2463.74L7404.16 2574.31L7292.88 2684.84L7404.16 2795.4L7515.44 2905.97L7626.69 2795.43L7738 2684.84L7626.69 2574.28ZM7626.69 3062.97L7515.41 2952.4L7404.13 3062.97L7292.85 3173.53L7404.13 3284.09L7515.41 3394.66L7626.69 3284.12L7737.97 3173.56L7626.69 3062.97ZM7626.69 3551.65L7515.41 3441.09L7404.13 3551.65L7292.88 3662.24L7404.16 3772.84L7515.44 3883.41L7626.69 3772.84L7737.97 3662.28L7626.69 3551.65ZM7992.44 378.12L7881.16 267.55L7769.89 378.12L7658.6 488.68L7769.89 599.25L7881.16 709.84L7992.44 599.28L8103.69 488.68L7992.44 378.12ZM7992.44 866.81L7881.16 756.24L7769.89 866.84L7658.6 977.4L7769.89 1087.96L7881.16 1198.53L7992.44 1087.96L8103.69 977.37L7992.44 866.81ZM7992.44 1355.5L7881.16 1244.93L7769.89 1355.5L7658.6 1466.06L7769.89 1576.62L7881.16 1687.19L7992.44 1576.62L8103.69 1466.06L7992.44 1355.5ZM7992.44 1844.18L7881.16 1733.62L7769.89 1844.18L7658.6 1954.75L7769.89 2065.31L7881.16 2175.84L7992.44 2065.28L8103.69 1954.75L7992.44 1844.18ZM7992.44 2332.87L7881.16 2222.3L7769.89 2332.84L7658.6 2443.4L7769.89 2553.96L7881.16 2664.53L7992.44 2553.96L8103.69 2443.43L7992.44 2332.87ZM7992.44 2821.56L7881.16 2710.99L7769.89 2821.56L7658.6 2932.12L7769.89 3042.68L7881.16 3153.25L7992.44 3042.68L8103.69 2932.12L7992.44 2821.56ZM7992.44 3310.24L7881.16 3199.68L7769.89 3310.24L7658.6 3420.84L7769.89 3531.4L7881.16 3641.96L7992.44 3531.4L8103.69 3420.84L7992.44 3310.24ZM8353.69 130.84L8242.39 20.31L8131.12 130.84L8019.83 241.44L8131.12 352L8242.39 462.57L8353.69 352L8464.96 241.44L8353.69 130.84ZM8353.69 619.53L8242.39 508.99L8131.12 619.56L8019.83 730.12L8131.12 840.68L8242.39 951.25L8353.69 840.68L8464.98 730.12L8353.69 619.53ZM8353.69 1108.22L8242.39 997.68L8131.12 1108.25L8019.83 1218.84L8131.12 1329.4L8242.39 1439.94L8353.69 1329.37L8464.96 1218.84L8353.69 1108.22ZM8353.69 1596.91L8242.39 1486.37L8131.12 1596.94L8019.83 1707.5L8131.12 1818.06L8242.39 1928.63L8353.69 1818.06L8464.98 1707.5L8353.69 1596.91ZM8353.69 2085.59L8242.39 1975.05L8131.12 2085.62L8019.83 2196.18L8131.12 2306.75L8242.39 2417.31L8353.69 2306.75L8464.98 2196.18L8353.69 2085.59ZM8353.69 2574.28L8242.39 2463.74L8131.12 2574.31L8019.83 2684.84L8131.12 2795.4L8242.39 2905.97L8353.69 2795.43L8464.96 2684.84L8353.69 2574.28ZM8353.69 3062.97L8242.39 2952.43L8131.12 3063L8019.83 3173.56L8131.12 3284.12L8242.39 3394.69L8353.69 3284.12L8464.98 3173.56L8353.69 3062.97ZM8353.69 3551.65L8242.39 3441.12L8131.12 3551.68L8019.83 3662.24L8131.12 3772.84L8242.39 3883.41L8353.69 3772.84L8464.98 3662.28L8353.69 3551.65ZM8719.39 378.12L8608.12 267.55L8496.84 378.12L8385.56 488.68L8496.84 599.25L8608.12 709.84L8719.39 599.25L8830.69 488.68L8719.39 378.12ZM8719.39 866.81L8608.12 756.24L8496.84 866.84L8385.56 977.4L8496.84 1087.96L8608.12 1198.53L8719.39 1087.96L8830.69 977.37L8719.39 866.81ZM8719.39 1355.5L8608.12 1244.93L8496.84 1355.5L8385.56 1466.06L8496.84 1576.62L8608.12 1687.19L8719.39 1576.62L8830.69 1466.06L8719.39 1355.5ZM8719.39 1844.18L8608.12 1733.62L8496.84 1844.18L8385.56 1954.75L8496.84 2065.31L8608.12 2175.84L8719.39 2065.28L8830.69 1954.75L8719.39 1844.18ZM8719.39 2332.87L8608.12 2222.3L8496.84 2332.84L8385.56 2443.4L8496.84 2553.96L8608.12 2664.53L8719.39 2553.96L8830.69 2443.43L8719.39 2332.87ZM8719.39 2821.56L8608.12 2710.99L8496.84 2821.56L8385.56 2932.12L8496.84 3042.68L8608.12 3153.25L8719.39 3042.68L8830.69 2932.12L8719.39 2821.56ZM8719.39 3310.24L8608.12 3199.68L8496.84 3310.24L8385.56 3420.84L8496.84 3531.4L8608.12 3641.96L8719.39 3531.4L8830.69 3420.84L8719.39 3310.24ZM248.85 0H243.01L240.09 2.9L122.97 119.27L5.84 235.63L0 241.44L5.84 247.24L122.97 363.6L240.09 479.98L245.93 485.78L240.09 491.59L122.97 607.96L5.84 724.32L0 730.12L5.84 735.93L122.97 852.29L240.09 968.66L245.93 974.47L240.09 980.27L122.97 1096.64L5.84 1213.01L0 1218.81L5.84 1224.61L122.97 1340.98L240.09 1457.35L245.93 1463.16L240.09 1468.96L122.97 1585.33L5.84 1701.69L0 1707.5L5.84 1713.3L122.97 1829.66L240.09 1946.03L245.93 1951.84L240.09 1957.65L122.97 2074.02L5.84 2190.38L0 2196.18L5.84 2201.99L122.97 2318.35L240.09 2434.72L245.93 2440.53L240.09 2446.33L122.97 2562.7L5.84 2679.07L0 2684.87L5.84 2690.67L122.97 2807.04L240.09 2923.41L245.93 2929.22L240.09 2935.02L122.97 3051.39L5.84 3167.76L0 3173.56L5.84 3179.36L122.97 3295.72L240.09 3412.1L245.93 3417.9L240.09 3423.71L122.97 3540.08L5.84 3656.44L0 3662.24L5.84 3668.05L122.97 3784.41L240.09 3900.78L245.93 3906.59L240.09 3912.39L198.53 3953.68H221.89L245.89 3929.8L269.89 3953.68H293.25L251.7 3912.39L245.86 3906.59L251.7 3900.78L368.81 3784.41L485.94 3668.05L491.78 3662.24L485.94 3656.44L368.88 3540.08L251.77 3423.71L245.93 3417.9L251.77 3412.1L368.88 3295.72L486.01 3179.36L491.85 3173.56L486.01 3167.76L368.88 3051.39L251.77 2935.02L245.93 2929.22L251.77 2923.41L368.88 2807.04L486.01 2690.67L491.85 2684.87L486.01 2679.07L368.88 2562.7L251.77 2446.33L245.93 2440.53L251.77 2434.72L368.88 2318.35L486.01 2201.99L491.85 2196.18L486.01 2190.38L368.88 2074.02L251.77 1957.65L245.93 1951.84L251.77 1946.03L368.88 1829.66L486.01 1713.3L491.85 1707.5L486.01 1701.69L368.88 1585.33L251.77 1468.96L245.93 1463.16L251.77 1457.35L368.88 1340.98L486.01 1224.61L491.85 1218.81L486.01 1213.01L368.88 1096.64L251.77 980.27L245.93 974.47L251.77 968.66L368.88 852.29L486.01 735.93L491.85 730.12L486.01 724.32L368.88 607.96L251.77 491.59L245.93 485.78L251.77 479.98L368.88 363.6L486.01 247.24L491.85 241.44L486.01 235.63L368.88 119.27L251.77 2.9L248.85 0ZM857.57 0H834.21L722.92 110.56L611.69 221.13L500.37 110.56L389.09 0H365.69L371.54 5.8L488.69 122.16L605.81 238.53L611.69 244.34L605.85 250.15L488.69 366.52L371.57 482.84L365.72 488.64L371.57 494.45L488.69 610.84L605.81 727.22L611.65 733.03L605.81 738.83L488.69 855.2L371.57 971.57L365.72 977.37L371.57 983.17L488.69 1099.54L605.81 1215.91L611.65 1221.72L605.81 1227.52L488.69 1343.89L371.57 1460.26L365.72 1466.06L371.57 1471.86L488.69 1588.22L605.81 1704.6L611.65 1710.41L605.81 1716.21L488.69 1832.58L371.57 1948.94L365.72 1954.75L371.57 1960.55L488.69 2076.91L605.81 2193.28L611.65 2199.09L605.81 2204.89L488.69 2321.27L371.57 2437.63L365.72 2443.43L371.57 2449.23L488.69 2565.6L605.81 2681.97L611.65 2687.78L605.81 2693.58L488.69 2809.95L371.57 2926.32L365.72 2932.12L371.57 2937.92L488.69 3054.29L605.81 3170.66L611.65 3176.46L605.81 3182.27L488.69 3298.64L371.57 3415L365.69 3420.84L371.54 3426.64L488.69 3542.97L605.81 3659.34L611.65 3665.15L605.81 3670.96L488.69 3787.33L371.57 3903.69L365.72 3909.49L371.57 3915.3L410.2 3953.68H433.56L389.09 3909.49L500.37 3798.93L611.69 3688.36L722.96 3798.93L834.25 3909.49L789.69 3953.68H813.09L851.69 3915.3L857.53 3909.49L851.69 3903.69L734.61 3787.33L617.49 3670.96L611.65 3665.15L617.49 3659.34L734.61 3542.97L851.69 3426.61L857.53 3420.81L851.69 3415L734.61 3298.64L617.49 3182.27L611.65 3176.46L617.49 3170.66L734.61 3054.29L851.69 2937.92L857.53 2932.12L851.69 2926.32L734.61 2809.95L617.49 2693.58L611.65 2687.78L617.49 2681.97L734.61 2565.6L851.69 2449.23L857.53 2443.43L851.69 2437.63L734.61 2321.27L617.49 2204.89L611.65 2199.09L617.49 2193.28L734.61 2076.91L851.69 1960.55L857.53 1954.75L851.69 1948.94L734.61 1832.58L617.49 1716.21L611.65 1710.41L617.49 1704.6L734.61 1588.22L851.69 1471.84L857.53 1466.04L851.69 1460.24L734.61 1343.89L617.49 1227.52L611.65 1221.72L617.49 1215.91L734.61 1099.54L851.69 983.17L857.53 977.37L851.69 971.57L734.61 855.2L617.49 738.84L611.65 733.04L617.49 727.23L734.61 610.84L851.69 494.49L857.53 488.68L851.69 482.84L734.61 366.52L617.49 250.15L611.69 244.34L617.53 238.53L734.61 122.16L851.69 5.84L857.57 0ZM975.8 0H969.96L967.04 2.9L849.92 119.27L732.79 235.63L726.95 241.44L732.79 247.24L849.92 363.6L967.04 479.98L972.88 485.78L967.04 491.59L849.92 607.96L732.79 724.32L726.95 730.12L732.79 735.93L849.92 852.29L967.04 968.66L972.88 974.47L967.04 980.27L849.92 1096.64L732.79 1213.01L726.95 1218.81L732.79 1224.61L849.92 1340.98L967.04 1457.35L972.88 1463.16L967.04 1468.96L849.92 1585.33L732.79 1701.69L726.95 1707.5L732.79 1713.3L849.92 1829.66L967.04 1946.03L972.88 1951.84L967.04 1957.65L849.92 2074.02L732.79 2190.38L726.95 2196.18L732.79 2201.99L849.92 2318.35L967.04 2434.72L972.88 2440.53L967.04 2446.33L849.92 2562.7L732.79 2679.07L726.95 2684.87L732.79 2690.67L849.92 2807.04L967.04 2923.41L972.88 2929.22L967.04 2935.02L849.92 3051.39L732.79 3167.76L726.95 3173.56L732.79 3179.36L849.92 3295.72L967.04 3412.1L972.88 3417.9L967.04 3423.71L849.92 3540.08L732.79 3656.44L726.95 3662.24L732.79 3668.05L849.92 3784.41L967.04 3900.78L972.88 3906.59L967.04 3912.39L925.48 3953.68H948.84L972.84 3929.8L996.84 3953.68H1020.2L978.69 3912.39L972.85 3906.59L978.69 3900.78L1095.81 3784.41L1212.93 3668.05L1218.77 3662.24L1212.93 3656.44L1095.81 3540.08L978.69 3423.71L972.85 3417.9L978.69 3412.1L1095.81 3295.72L1212.93 3179.36L1218.77 3173.56L1212.93 3167.76L1095.81 3051.39L978.69 2935.02L972.85 2929.22L978.69 2923.41L1095.81 2807.04L1212.93 2690.67L1218.77 2684.87L1212.93 2679.07L1095.81 2562.7L978.69 2446.33L972.85 2440.53L978.69 2434.72L1095.81 2318.35L1212.93 2201.99L1218.77 2196.18L1212.93 2190.38L1095.81 2074.02L978.69 1957.65L972.85 1951.84L978.69 1946.03L1095.81 1829.66L1212.93 1713.3L1218.77 1707.5L1212.93 1701.69L1095.81 1585.33L978.69 1468.96L972.85 1463.16L978.69 1457.35L1095.81 1340.98L1212.93 1224.61L1218.77 1218.81L1212.93 1213.01L1095.84 1096.64L978.69 980.27L972.85 974.47L978.69 968.66L1095.81 852.29L1212.93 735.93L1218.77 730.12L1212.93 724.32L1095.84 607.96L978.69 491.59L972.85 485.78L978.69 479.98L1095.81 363.6L1212.96 247.24L1218.8 241.44L1212.96 235.63L1095.84 119.27L978.69 2.9L975.8 0ZM1584.52 0H1561.16L1449.88 110.56L1338.6 221.13L1227.32 110.56L1116.04 0H1092.69L1098.54 5.8L1215.69 122.16L1332.81 238.53L1338.65 244.34L1332.81 250.15L1215.69 366.52L1098.52 482.84L1092.67 488.64L1098.52 494.45L1215.69 610.84L1332.81 727.21L1338.65 733.02L1332.81 738.82L1215.69 855.2L1098.52 971.57L1092.67 977.37L1098.52 983.17L1215.69 1099.54L1332.81 1215.91L1338.65 1221.72L1332.81 1227.52L1215.69 1343.89L1098.57 1460.26L1092.72 1466.06L1098.57 1471.86L1215.69 1588.22L1332.81 1704.6L1338.65 1710.41L1332.81 1716.21L1215.69 1832.58L1098.52 1948.94L1092.67 1954.75L1098.52 1960.55L1215.69 2076.91L1332.81 2193.28L1338.65 2199.09L1332.81 2204.89L1215.69 2321.27L1098.57 2437.63L1092.72 2443.43L1098.57 2449.23L1215.69 2565.6L1332.81 2681.97L1338.65 2687.78L1332.81 2693.58L1215.69 2809.95L1098.57 2926.32L1092.72 2932.12L1098.57 2937.92L1215.69 3054.29L1332.81 3170.66L1338.65 3176.46L1332.81 3182.27L1215.69 3298.64L1098.57 3415L1092.69 3420.84L1098.54 3426.64L1215.69 3542.97L1332.81 3659.34L1338.65 3665.15L1332.81 3670.96L1215.69 3787.33L1098.57 3903.69L1092.72 3909.49L1098.57 3915.3L1137.2 3953.68H1160.56L1116.09 3909.49L1227.37 3798.93L1338.65 3688.36L1449.93 3798.93L1561.21 3909.49L1516.69 3953.68H1540.05L1578.69 3915.3L1584.53 3909.49L1578.69 3903.69L1461.57 3787.33L1344.45 3670.96L1338.61 3665.15L1344.45 3659.34L1461.57 3542.97L1578.69 3426.61L1584.53 3420.81L1578.69 3415L1461.56 3298.64L1344.44 3182.27L1338.6 3176.46L1344.44 3170.66L1461.56 3054.29L1578.69 2937.92L1584.53 2932.12L1578.69 2926.32L1461.57 2809.95L1344.45 2693.58L1338.61 2687.78L1344.45 2681.97L1461.57 2565.6L1578.69 2449.23L1584.53 2443.43L1578.69 2437.63L1461.57 2321.27L1344.45 2204.89L1338.61 2199.09L1344.45 2193.28L1461.57 2076.91L1578.69 1960.55L1584.53 1954.75L1578.69 1948.94L1461.57 1832.58L1344.45 1716.21L1338.61 1710.41L1344.45 1704.6L1461.57 1588.22L1578.69 1471.84L1584.53 1466.04L1578.69 1460.24L1461.57 1343.87L1344.45 1227.5L1338.61 1221.7L1344.45 1215.89L1461.57 1099.52L1578.69 983.17L1584.53 977.37L1578.69 971.57L1461.56 855.2L1344.44 738.84L1338.6 733.04L1344.44 727.23L1461.56 610.84L1578.69 494.49L1584.53 488.68L1578.69 482.84L1461.56 366.52L1344.44 250.15L1338.6 244.34L1344.44 238.53L1461.56 122.16L1578.69 5.84L1584.52 0ZM1702.75 0H1696.91L1693.99 2.9L1576.87 119.27L1459.75 235.63L1453.9 241.44L1459.75 247.24L1576.87 363.6L1693.99 479.98L1699.83 485.78L1693.99 491.59L1576.87 607.96L1459.75 724.32L1453.9 730.12L1459.75 735.93L1576.87 852.29L1693.99 968.66L1699.83 974.47L1693.99 980.27L1576.87 1096.64L1459.75 1213.01L1453.9 1218.81L1459.75 1224.61L1576.87 1340.98L1693.99 1457.35L1699.83 1463.16L1693.99 1468.96L1576.87 1585.33L1459.75 1701.69L1453.9 1707.5L1459.75 1713.3L1576.87 1829.66L1693.99 1946.03L1699.83 1951.84L1693.99 1957.65L1576.87 2074.02L1459.75 2190.38L1453.9 2196.18L1459.75 2201.99L1576.87 2318.35L1693.99 2434.72L1699.83 2440.53L1693.99 2446.33L1576.87 2562.7L1459.75 2679.07L1453.9 2684.87L1459.75 2690.67L1576.87 2807.04L1693.99 2923.41L1699.83 2929.22L1693.99 2935.02L1576.87 3051.39L1459.75 3167.76L1453.9 3173.56L1459.75 3179.36L1576.87 3295.72L1693.99 3412.1L1699.83 3417.9L1693.99 3423.71L1576.87 3540.08L1459.75 3656.44L1453.9 3662.24L1459.75 3668.05L1576.87 3784.41L1693.99 3900.78L1699.83 3906.59L1693.99 3912.39L1652.43 3953.68H1675.79L1699.79 3929.8L1723.79 3953.68H1747.15L1705.69 3912.39L1699.85 3906.59L1705.69 3900.78L1822.81 3784.41L1939.93 3668.05L1945.77 3662.24L1939.93 3656.44L1822.79 3540.08L1705.69 3423.71L1699.85 3417.9L1705.69 3412.1L1822.81 3295.72L1939.93 3179.36L1945.77 3173.56L1939.93 3167.76L1822.79 3051.39L1705.69 2935.02L1699.85 2929.22L1705.69 2923.41L1822.79 2807.04L1939.91 2690.67L1945.75 2684.87L1939.91 2679.07L1822.79 2562.7L1705.69 2446.33L1699.85 2440.53L1705.69 2434.72L1822.81 2318.35L1939.93 2201.99L1945.77 2196.18L1939.93 2190.38L1822.79 2074.02L1705.69 1957.65L1699.85 1951.84L1705.69 1946.03L1822.81 1829.66L1939.93 1713.3L1945.77 1707.5L1939.93 1701.69L1822.79 1585.33L1705.69 1468.96L1699.85 1463.16L1705.69 1457.35L1822.81 1340.98L1939.93 1224.61L1945.77 1218.81L1939.93 1213.01L1822.79 1096.64L1705.69 980.27L1699.85 974.47L1705.69 968.66L1822.79 852.29L1939.91 735.93L1945.75 730.12L1939.91 724.32L1822.79 607.96L1705.69 491.59L1699.85 485.78L1705.69 479.98L1822.79 363.6L1939.91 247.24L1945.75 241.44L1939.91 235.63L1822.79 119.27L1705.69 2.9L1702.75 0ZM2311.47 0H2288.11L2176.83 110.56L2065.55 221.13L1954.27 110.56L1842.99 0H1819.62L1825.47 5.8L1942.59 122.16L2059.69 238.53L2065.53 244.34L2059.69 250.15L1942.59 366.52L1825.47 482.84L1819.62 488.64L1825.47 494.45L1942.59 610.84L2059.69 727.22L2065.53 733.03L2059.69 738.84L1942.59 855.2L1825.47 971.57L1819.62 977.37L1825.47 983.17L1942.59 1099.54L2059.69 1215.91L2065.53 1221.72L2059.69 1227.52L1942.59 1343.89L1825.47 1460.26L1819.62 1466.06L1825.47 1471.86L1942.59 1588.22L2059.69 1704.6L2065.53 1710.41L2059.69 1716.21L1942.59 1832.58L1825.47 1948.94L1819.62 1954.75L1825.47 1960.55L1942.59 2076.91L2059.69 2193.28L2065.53 2199.09L2059.69 2204.89L1942.59 2321.27L1825.47 2437.63L1819.62 2443.43L1825.47 2449.23L1942.59 2565.6L2059.69 2681.97L2065.53 2687.78L2059.69 2693.58L1942.59 2809.95L1825.47 2926.32L1819.62 2932.12L1825.47 2937.92L1942.59 3054.29L2059.69 3170.66L2065.53 3176.46L2059.69 3182.27L1942.59 3298.64L1825.47 3415L1819.62 3420.81L1825.47 3426.61L1942.59 3542.97L2059.69 3659.34L2065.53 3665.15L2059.69 3670.96L1942.59 3787.33L1825.47 3903.69L1819.62 3909.49L1825.47 3915.3L1864.11 3953.68H1887.47L1842.99 3909.49L1954.27 3798.93L2065.55 3688.36L2176.83 3798.93L2288.11 3909.49L2243.69 3953.68H2267.05L2305.68 3915.3L2311.52 3909.49L2305.68 3903.69L2188.56 3787.33L2071.39 3670.96L2065.55 3665.15L2071.39 3659.34L2188.51 3542.97L2305.63 3426.61L2311.47 3420.81L2305.63 3415L2188.51 3298.64L2071.39 3182.27L2065.55 3176.46L2071.39 3170.66L2188.51 3054.29L2305.63 2937.92L2311.47 2932.12L2305.63 2926.32L2188.51 2809.95L2071.39 2693.58L2065.55 2687.78L2071.39 2681.97L2188.51 2565.6L2305.63 2449.23L2311.47 2443.43L2305.63 2437.63L2188.51 2321.27L2071.39 2204.89L2065.55 2199.09L2071.39 2193.28L2188.51 2076.91L2305.63 1960.55L2311.47 1954.75L2305.63 1948.94L2188.51 1832.58L2071.39 1716.21L2065.55 1710.41L2071.39 1704.6L2188.51 1588.22L2305.63 1471.84L2311.47 1466.04L2305.63 1460.24L2188.51 1343.87L2071.39 1227.52L2065.55 1221.72L2071.39 1215.91L2188.51 1099.54L2305.63 983.17L2311.47 977.37L2305.63 971.57L2188.51 855.2L2071.39 738.84L2065.55 733.04L2071.39 727.23L2188.51 610.84L2305.63 494.48L2311.47 488.67L2305.63 482.87L2188.51 366.52L2071.39 250.15L2065.55 244.34L2071.39 238.53L2188.51 122.16L2305.63 5.84L2311.47 0ZM2429.7 0H2423.86L2420.94 2.9L2303.82 119.27L2186.69 235.63L2180.84 241.44L2186.69 247.24L2303.81 363.6L2420.93 479.98L2426.77 485.78L2420.93 491.59L2303.82 607.96L2186.69 724.32L2180.84 730.12L2186.69 735.93L2303.81 852.29L2420.93 968.66L2426.77 974.47L2420.93 980.27L2303.82 1096.64L2186.69 1213.01L2180.84 1218.81L2186.69 1224.61L2303.81 1340.98L2420.93 1457.35L2426.77 1463.16L2420.93 1468.96L2303.81 1585.33L2186.69 1701.69L2180.84 1707.5L2186.69 1713.3L2303.81 1829.66L2420.93 1946.03L2426.77 1951.84L2420.93 1957.65L2303.81 2074.02L2186.69 2190.38L2180.84 2196.18L2186.69 2201.99L2303.81 2318.35L2420.93 2434.72L2426.77 2440.53L2420.93 2446.33L2303.81 2562.7L2186.69 2679.07L2180.84 2684.87L2186.69 2690.67L2303.81 2807.04L2420.93 2923.41L2426.77 2929.22L2420.93 2935.02L2303.81 3051.39L2186.69 3167.76L2180.84 3173.56L2186.69 3179.36L2303.81 3295.72L2420.93 3412.1L2426.77 3417.9L2420.93 3423.71L2303.81 3540.08L2186.69 3656.44L2180.84 3662.24L2186.69 3668.05L2303.81 3784.41L2420.93 3900.78L2426.77 3906.59L2420.93 3912.39L2379.37 3953.68H2402.74L2426.74 3929.8L2450.74 3953.68H2474.11L2432.55 3912.39L2426.71 3906.59L2432.55 3900.78L2549.67 3784.41L2666.79 3668.05L2672.63 3662.24L2666.79 3656.44L2549.67 3540.08L2432.55 3423.71L2426.71 3417.9L2432.55 3412.1L2549.67 3295.72L2666.79 3179.36L2672.63 3173.56L2666.79 3167.76L2549.67 3051.39L2432.55 2935.02L2426.71 2929.22L2432.55 2923.41L2549.67 2807.04L2666.79 2690.67L2672.63 2684.87L2666.79 2679.07L2549.67 2562.7L2432.55 2446.33L2426.71 2440.53L2432.55 2434.72L2549.67 2318.35L2666.79 2201.99L2672.63 2196.18L2666.79 2190.38L2549.67 2074.02L2432.55 1957.65L2426.71 1951.84L2432.55 1946.03L2549.67 1829.66L2666.79 1713.3L2672.63 1707.5L2666.79 1701.69L2549.67 1585.33L2432.55 1468.96L2426.71 1463.16L2432.55 1457.35L2549.67 1340.98L2666.79 1224.61L2672.63 1218.81L2666.79 1213.01L2549.74 1096.64L2432.62 980.27L2426.78 974.47L2432.62 968.66L2549.74 852.29L2666.86 735.93L2672.7 730.12L2666.86 724.32L2549.74 607.96L2432.62 491.59L2426.78 485.78L2432.62 479.98L2549.74 363.6L2666.86 247.24L2672.7 241.44L2666.86 235.63L2549.74 119.27L2432.62 2.9L2429.7 0ZM3038.43 0H3015.06L2903.78 110.56L2792.5 221.13L2681.23 110.56L2569.94 0H2546.57L2552.42 5.8L2669.54 122.16L2786.69 238.53L2792.53 244.34L2786.69 250.15L2669.54 366.52L2552.42 482.84L2546.57 488.64L2552.42 494.45L2669.54 610.84L2786.69 727.22L2792.53 733.03L2786.69 738.84L2669.54 855.2L2552.42 971.57L2546.57 977.37L2552.42 983.17L2669.54 1099.54L2786.69 1215.91L2792.53 1221.72L2786.69 1227.52L2669.57 1343.89L2552.45 1460.26L2546.6 1466.06L2552.45 1471.86L2669.57 1588.22L2786.69 1704.6L2792.53 1710.41L2786.69 1716.21L2669.57 1832.58L2552.42 1948.94L2546.57 1954.75L2552.42 1960.55L2669.54 2076.91L2786.69 2193.28L2792.53 2199.09L2786.69 2204.89L2669.57 2321.27L2552.45 2437.63L2546.6 2443.43L2552.45 2449.23L2669.57 2565.6L2786.69 2681.97L2792.53 2687.78L2786.69 2693.58L2669.57 2809.95L2552.45 2926.32L2546.6 2932.12L2552.45 2937.92L2669.57 3054.29L2786.69 3170.66L2792.53 3176.46L2786.69 3182.27L2669.54 3298.64L2552.42 3415L2546.57 3420.81L2552.42 3426.61L2669.54 3542.97L2786.69 3659.34L2792.53 3665.15L2786.69 3670.96L2669.57 3787.33L2552.45 3903.69L2546.6 3909.49L2552.45 3915.3L2591.09 3953.68H2614.45L2569.97 3909.49L2681.26 3798.93L2792.53 3688.36L2903.81 3798.93L3015.09 3909.49L2970.62 3953.68H2993.98L3032.62 3915.3L3038.46 3909.49L3032.62 3903.69L2915.49 3787.33L2798.37 3670.96L2792.53 3665.15L2798.37 3659.34L2915.49 3542.97L3032.62 3426.61L3038.46 3420.81L3032.62 3415L2915.46 3298.64L2798.34 3182.27L2792.5 3176.46L2798.34 3170.66L2915.46 3054.29L3032.59 2937.92L3038.43 2932.12L3032.59 2926.32L2915.46 2809.95L2798.34 2693.58L2792.5 2687.78L2798.34 2681.97L2915.46 2565.6L3032.59 2449.23L3038.43 2443.43L3032.59 2437.63L2915.46 2321.27L2798.34 2204.89L2792.5 2199.09L2798.34 2193.28L2915.46 2076.91L3032.59 1960.55L3038.43 1954.75L3032.59 1948.94L2915.46 1832.58L2798.34 1716.21L2792.5 1710.41L2798.34 1704.6L2915.46 1588.22L3032.59 1471.84L3038.43 1466.04L3032.59 1460.24L2915.46 1343.87L2798.34 1227.5L2792.5 1221.7L2798.34 1215.89L2915.46 1099.52L3032.59 983.15L3038.43 977.35L3032.59 971.55L2915.46 855.2L2798.34 738.84L2792.5 733.04L2798.34 727.23L2915.46 610.84L3032.59 494.49L3038.43 488.68L3032.59 482.88L2915.46 366.52L2798.34 250.15L2792.5 244.34L2798.34 238.53L2915.46 122.16L3032.59 5.84L3038.43 0ZM3156.65 0H3150.81L3147.89 2.9L3030.77 119.27L2913.69 235.63L2907.84 241.44L2913.69 247.24L3030.81 363.6L3147.89 479.98L3153.73 485.78L3147.89 491.59L3030.77 607.96L2913.69 724.32L2907.84 730.12L2913.69 735.93L3030.81 852.29L3147.89 968.66L3153.73 974.47L3147.89 980.27L3030.77 1096.64L2913.69 1213.01L2907.84 1218.81L2913.69 1224.61L3030.81 1340.98L3147.93 1457.35L3153.77 1463.16L3147.93 1468.96L3030.81 1585.33L2913.69 1701.69L2907.84 1707.5L2913.69 1713.3L3030.81 1829.66L3147.93 1946.03L3153.69 1951.84L3147.85 1957.65L3030.73 2074.02L2913.69 2190.38L2907.84 2196.18L2913.69 2201.99L3030.81 2318.35L3147.93 2434.72L3153.77 2440.53L3147.93 2446.33L3030.81 2562.7L2913.69 2679.07L2907.84 2684.87L2913.69 2690.67L3030.81 2807.04L3147.93 2923.41L3153.77 2929.22L3147.93 2935.02L3030.81 3051.39L2913.69 3167.76L2907.84 3173.56L2913.69 3179.36L3030.81 3295.72L3147.93 3412.1L3153.77 3417.9L3147.93 3423.71L3030.81 3540.08L2913.69 3656.44L2907.84 3662.24L2913.69 3668.05L3030.81 3784.41L3147.93 3900.78L3153.77 3906.59L3147.93 3912.39L3106.38 3953.68H3129.69L3153.69 3929.8L3177.69 3953.68H3201.05L3159.49 3912.39L3153.65 3906.59L3159.49 3900.78L3276.69 3784.41L3393.81 3668.05L3399.66 3662.24L3393.81 3656.44L3276.69 3540.08L3159.57 3423.71L3153.73 3417.9L3159.57 3412.1L3276.69 3295.72L3393.81 3179.36L3399.66 3173.56L3393.81 3167.76L3276.69 3051.39L3159.57 2935.02L3153.73 2929.22L3159.57 2923.41L3276.69 2807.04L3393.81 2690.67L3399.66 2684.87L3393.81 2679.07L3276.69 2562.7L3159.57 2446.33L3153.73 2440.53L3159.57 2434.72L3276.69 2318.35L3393.81 2201.99L3399.66 2196.18L3393.81 2190.38L3276.69 2074.02L3159.57 1957.65L3153.69 1951.84L3159.53 1946.03L3276.69 1829.66L3393.81 1713.3L3399.66 1707.5L3393.81 1701.69L3276.69 1585.33L3159.57 1468.96L3153.73 1463.16L3159.57 1457.35L3276.69 1340.98L3393.81 1224.61L3399.66 1218.81L3393.81 1213.01L3276.69 1096.64L3159.57 980.27L3153.73 974.47L3159.57 968.66L3276.69 852.29L3393.81 735.93L3399.66 730.12L3393.81 724.32L3276.69 607.96L3159.57 491.59L3153.73 485.78L3159.57 479.98L3276.69 363.6L3393.81 247.24L3399.66 241.44L3393.81 235.63L3276.69 119.27L3159.57 2.9L3156.65 0ZM3765.38 0H3742.02L3630.69 110.56L3519.45 221.13L3408.18 110.56L3296.89 0H3273.53L3279.37 5.8L3396.5 122.16L3513.62 238.53L3519.45 244.34L3513.62 250.15L3396.5 366.52L3279.37 482.84L3273.53 488.64L3279.37 494.45L3396.5 610.84L3513.62 727.21L3519.45 733.02L3513.62 738.82L3396.5 855.2L3279.37 971.57L3273.53 977.37L3279.37 983.17L3396.5 1099.54L3513.62 1215.91L3519.45 1221.72L3513.62 1227.52L3396.5 1343.89L3279.37 1460.26L3273.53 1466.06L3279.37 1471.86L3396.5 1588.22L3513.62 1704.6L3519.45 1710.41L3513.62 1716.21L3396.5 1832.58L3279.37 1948.94L3273.53 1954.75L3279.37 1960.55L3396.5 2076.91L3513.62 2193.28L3519.45 2199.09L3513.62 2204.89L3396.5 2321.27L3279.37 2437.63L3273.53 2443.43L3279.37 2449.23L3396.5 2565.6L3513.62 2681.97L3519.45 2687.78L3513.62 2693.58L3396.5 2809.95L3279.37 2926.32L3273.53 2932.12L3279.37 2937.92L3396.5 3054.29L3513.62 3170.66L3519.45 3176.46L3513.62 3182.27L3396.5 3298.64L3279.37 3415L3273.53 3420.81L3279.37 3426.61L3396.5 3542.97L3513.62 3659.34L3519.45 3665.15L3513.62 3670.96L3396.5 3787.33L3279.37 3903.69L3273.53 3909.49L3279.37 3915.3L3318.01 3953.68H3341.37L3296.89 3909.49L3408.18 3798.93L3519.45 3688.36L3630.69 3798.93L3741.98 3909.49L3697.5 3953.68H3720.86L3759.5 3915.3L3765.34 3909.49L3759.5 3903.69L3642.37 3787.33L3525.29 3670.96L3519.45 3665.15L3525.29 3659.34L3642.41 3542.97L3759.54 3426.61L3765.38 3420.81L3759.54 3415L3642.41 3298.64L3525.29 3182.27L3519.45 3176.46L3525.29 3170.66L3642.41 3054.29L3759.54 2937.92L3765.38 2932.12L3759.54 2926.32L3642.41 2809.95L3525.29 2693.58L3519.45 2687.78L3525.29 2681.97L3642.41 2565.6L3759.54 2449.23L3765.38 2443.43L3759.54 2437.63L3642.41 2321.27L3525.29 2204.89L3519.45 2199.09L3525.29 2193.28L3642.41 2076.91L3759.54 1960.55L3765.38 1954.75L3759.54 1948.94L3642.41 1832.58L3525.29 1716.21L3519.45 1710.41L3525.29 1704.6L3642.41 1588.22L3759.54 1471.84L3765.38 1466.04L3759.54 1460.24L3642.41 1343.87L3525.29 1227.52L3519.45 1221.72L3525.29 1215.91L3642.41 1099.54L3759.54 983.17L3765.38 977.37L3759.54 971.57L3642.41 855.2L3525.29 738.84L3519.45 733.04L3525.29 727.23L3642.41 610.84L3759.54 494.48L3765.38 488.67L3759.54 482.87L3642.41 366.52L3525.29 250.15L3519.45 244.34L3525.29 238.53L3642.41 122.16L3759.54 5.84L3765.38 0ZM3883.6 0H3877.76L3874.84 2.9L3757.69 119.27L3640.6 235.63L3634.76 241.44L3640.6 247.24L3757.69 363.6L3874.8 479.98L3880.64 485.78L3874.8 491.59L3757.69 607.96L3640.6 724.32L3634.76 730.12L3640.6 735.93L3757.69 852.29L3874.8 968.66L3880.64 974.47L3874.8 980.27L3757.69 1096.64L3640.56 1213.01L3634.72 1218.81L3640.56 1224.61L3757.69 1340.98L3874.8 1457.35L3880.64 1463.16L3874.8 1468.96L3757.69 1585.33L3640.56 1701.69L3634.72 1707.5L3640.56 1713.3L3757.69 1829.66L3874.8 1946.03L3880.69 1951.84L3874.85 1957.65L3757.69 2074.02L3640.56 2190.38L3634.72 2196.18L3640.56 2201.99L3757.69 2318.35L3874.8 2434.72L3880.64 2440.53L3874.8 2446.33L3757.69 2562.7L3640.56 2679.07L3634.72 2684.87L3640.56 2690.67L3757.69 2807.04L3874.8 2923.41L3880.64 2929.22L3874.8 2935.02L3757.69 3051.39L3640.56 3167.76L3634.72 3173.56L3640.56 3179.36L3757.69 3295.72L3874.8 3412.1L3880.64 3417.9L3874.8 3423.71L3757.69 3540.08L3640.6 3656.44L3634.76 3662.24L3640.6 3668.05L3757.69 3784.41L3874.8 3900.78L3880.64 3906.59L3874.8 3912.39L3833.25 3953.68H3856.69L3880.69 3929.8L3904.69 3953.68H3928.05L3886.49 3912.39L3880.65 3906.59L3886.49 3900.78L4003.69 3784.41L4120.82 3668.05L4126.66 3662.24L4120.82 3656.44L4003.69 3540.08L3886.57 3423.71L3880.73 3417.9L3886.57 3412.1L4003.69 3295.72L4120.82 3179.36L4126.66 3173.56L4120.82 3167.76L4003.69 3051.39L3886.57 2935.02L3880.73 2929.22L3886.57 2923.41L4003.69 2807.04L4120.82 2690.67L4126.66 2684.87L4120.82 2679.07L4003.69 2562.7L3886.57 2446.33L3880.73 2440.53L3886.57 2434.72L4003.69 2318.35L4120.82 2201.99L4126.66 2196.18L4120.82 2190.38L4003.69 2074.02L3886.57 1957.65L3880.69 1951.84L3886.53 1946.03L4003.69 1829.66L4120.82 1713.3L4126.66 1707.5L4120.82 1701.69L4003.69 1585.33L3886.57 1468.96L3880.73 1463.16L3886.57 1457.35L4003.69 1340.98L4120.82 1224.61L4126.66 1218.81L4120.82 1213.01L4003.69 1096.64L3886.57 980.27L3880.73 974.47L3886.57 968.66L4003.69 852.29L4120.82 735.93L4126.66 730.12L4120.82 724.32L4003.69 607.96L3886.52 491.59L3880.68 485.78L3886.52 479.98L4003.69 363.6L4120.77 247.24L4126.61 241.44L4120.77 235.63L4003.69 119.27L3886.52 2.9L3883.6 0ZM4492.33 0H4468.97L4357.69 110.56L4246.41 221.13L4135.13 110.56L4023.84 0H4000.48L4006.32 5.8L4123.45 122.16L4240.57 238.53L4246.41 244.34L4240.57 250.15L4123.45 366.52L4006.32 482.84L4000.48 488.64L4006.32 494.45L4123.45 610.84L4240.57 727.21L4246.41 733.02L4240.57 738.82L4123.45 855.2L4006.32 971.57L4000.48 977.37L4006.32 983.17L4123.45 1099.54L4240.57 1215.91L4246.41 1221.72L4240.57 1227.52L4123.45 1343.89L4006.32 1460.26L4000.48 1466.06L4006.32 1471.86L4123.45 1588.22L4240.57 1704.6L4246.41 1710.41L4240.57 1716.21L4123.45 1832.58L4006.32 1948.94L4000.48 1954.75L4006.32 1960.55L4123.45 2076.91L4240.57 2193.28L4246.41 2199.09L4240.57 2204.89L4123.45 2321.27L4006.32 2437.63L4000.48 2443.43L4006.32 2449.23L4123.45 2565.6L4240.57 2681.97L4246.41 2687.78L4240.57 2693.58L4123.45 2809.95L4006.32 2926.32L4000.48 2932.12L4006.32 2937.92L4123.45 3054.29L4240.57 3170.66L4246.41 3176.46L4240.57 3182.27L4123.45 3298.64L4006.32 3415L4000.48 3420.81L4006.32 3426.61L4123.45 3542.97L4240.57 3659.34L4246.41 3665.15L4240.57 3670.96L4123.45 3787.33L4006.32 3903.69L4000.48 3909.49L4006.32 3915.3L4044.96 3953.68H4068.32L4023.84 3909.49L4135.13 3798.93L4246.41 3688.36L4357.69 3798.93L4468.98 3909.49L4424.5 3953.68H4447.86L4486.5 3915.3L4492.34 3909.49L4486.5 3903.69L4369.37 3787.33L4252.26 3670.96L4246.42 3665.15L4252.26 3659.34L4369.37 3542.97L4486.5 3426.61L4492.34 3420.81L4486.5 3415L4369.36 3298.64L4252.25 3182.27L4246.41 3176.46L4252.25 3170.66L4369.36 3054.29L4486.49 2937.92L4492.33 2932.12L4486.49 2926.32L4369.36 2809.95L4252.25 2693.58L4246.41 2687.78L4252.25 2681.97L4369.36 2565.6L4486.49 2449.23L4492.33 2443.43L4486.49 2437.63L4369.36 2321.27L4252.25 2204.89L4246.41 2199.09L4252.25 2193.28L4369.36 2076.91L4486.49 1960.55L4492.33 1954.75L4486.49 1948.94L4369.36 1832.58L4252.25 1716.21L4246.41 1710.41L4252.25 1704.6L4369.36 1588.22L4486.49 1471.84L4492.33 1466.04L4486.49 1460.24L4369.36 1343.87L4252.25 1227.5L4246.41 1221.7L4252.25 1215.89L4369.36 1099.52L4486.49 983.15L4492.33 977.35L4486.49 971.55L4369.36 855.2L4252.25 738.84L4246.41 733.04L4252.25 727.23L4369.36 610.84L4486.49 494.49L4492.33 488.68L4486.49 482.88L4369.36 366.52L4252.25 250.15L4246.41 244.34L4252.25 238.53L4369.36 122.16L4486.49 5.84L4492.33 0ZM4610.56 0H4604.69L4601.77 2.9L4484.69 119.27L4367.55 235.63L4361.69 241.44L4367.53 247.24L4484.69 363.6L4601.79 479.98L4607.64 485.78L4601.79 491.59L4484.69 607.96L4367.55 724.32L4361.71 730.12L4367.55 735.93L4484.69 852.29L4601.79 968.66L4607.64 974.47L4601.79 980.27L4484.69 1096.64L4367.56 1213.01L4361.69 1218.84L4367.53 1224.64L4484.69 1340.98L4601.8 1457.35L4607.65 1463.16L4601.8 1468.96L4484.69 1585.33L4367.56 1701.69L4361.72 1707.5L4367.56 1713.3L4484.69 1829.66L4601.8 1946.03L4607.69 1951.84L4601.84 1957.65L4484.69 2074.02L4367.56 2190.38L4361.72 2196.18L4367.56 2201.99L4484.69 2318.35L4601.8 2434.72L4607.65 2440.53L4601.8 2446.33L4484.69 2562.7L4367.56 2679.07L4361.69 2684.84L4367.53 2690.64L4484.69 2807.04L4601.8 2923.41L4607.65 2929.22L4601.8 2935.02L4484.69 3051.39L4367.56 3167.76L4361.72 3173.56L4367.56 3179.36L4484.69 3295.72L4601.8 3412.1L4607.65 3417.9L4601.8 3423.71L4484.69 3540.08L4367.55 3656.44L4361.71 3662.24L4367.55 3668.05L4484.69 3784.41L4601.8 3900.78L4607.65 3906.59L4601.8 3912.39L4560.25 3953.68H4583.61L4607.61 3929.8L4631.61 3953.68H4654.97L4613.42 3912.39L4607.58 3906.59L4613.42 3900.78L4730.53 3784.41L4847.69 3668.05L4853.53 3662.24L4847.69 3656.44L4730.59 3540.08L4613.48 3423.71L4607.64 3417.9L4613.48 3412.1L4730.59 3295.72L4847.69 3179.36L4853.53 3173.56L4847.69 3167.76L4730.59 3051.39L4613.48 2935.02L4607.64 2929.22L4613.48 2923.41L4730.59 2807.04L4847.69 2690.67L4853.53 2684.87L4847.69 2679.07L4730.59 2562.7L4613.48 2446.33L4607.64 2440.53L4613.48 2434.72L4730.59 2318.35L4847.69 2201.99L4853.53 2196.18L4847.69 2190.38L4730.59 2074.02L4613.48 1957.65L4607.69 1951.84L4613.53 1946.03L4730.64 1829.66L4847.69 1713.3L4853.53 1707.5L4847.69 1701.69L4730.59 1585.33L4613.48 1468.96L4607.64 1463.16L4613.48 1457.35L4730.59 1340.98L4847.69 1224.61L4853.53 1218.81L4847.69 1213.01L4730.59 1096.64L4613.48 980.27L4607.64 974.47L4613.48 968.66L4730.59 852.29L4847.69 735.93L4853.53 730.12L4847.69 724.32L4730.59 607.96L4613.48 491.59L4607.64 485.78L4613.48 479.98L4730.59 363.6L4847.69 247.24L4853.53 241.44L4847.69 235.63L4730.59 119.27L4613.48 2.9L4610.56 0ZM5219.28 0H5195.92L5084.69 110.56L4973.36 221.13L4862.08 110.56L4750.8 0H4727.43L4733.28 5.8L4850.4 122.16L4967.52 238.53L4973.36 244.34L4967.52 250.15L4850.4 366.52L4733.28 482.84L4727.43 488.64L4733.28 494.45L4850.4 610.84L4967.52 727.21L4973.36 733.02L4967.52 738.82L4850.4 855.2L4733.28 971.57L4727.43 977.37L4733.28 983.17L4850.4 1099.54L4967.52 1215.91L4973.36 1221.72L4967.52 1227.52L4850.4 1343.89L4733.28 1460.26L4727.43 1466.06L4733.28 1471.86L4850.4 1588.22L4967.52 1704.6L4973.36 1710.41L4967.52 1716.21L4850.4 1832.58L4733.28 1948.94L4727.43 1954.75L4733.28 1960.55L4850.4 2076.91L4967.52 2193.28L4973.36 2199.09L4967.52 2204.89L4850.4 2321.27L4733.28 2437.63L4727.43 2443.43L4733.28 2449.23L4850.4 2565.6L4967.52 2681.97L4973.36 2687.78L4967.52 2693.58L4850.4 2809.95L4733.28 2926.32L4727.43 2932.12L4733.28 2937.92L4850.4 3054.29L4967.52 3170.66L4973.36 3176.46L4967.52 3182.27L4850.4 3298.64L4733.28 3415L4727.43 3420.81L4733.28 3426.61L4850.4 3542.97L4967.52 3659.34L4973.36 3665.15L4967.52 3670.96L4850.4 3787.33L4733.28 3903.69L4727.43 3909.49L4733.28 3915.3L4771.91 3953.68H4795.27L4750.8 3909.49L4862.08 3798.93L4973.36 3688.36L5084.69 3798.93L5195.97 3909.49L5151.49 3953.68H5174.85L5213.49 3915.3L5219.33 3909.49L5213.49 3903.69L5096.36 3787.33L4979.25 3670.96L4973.41 3665.15L4979.25 3659.34L5096.36 3542.97L5213.49 3426.61L5219.33 3420.81L5213.49 3415L5096.31 3298.64L4979.2 3182.27L4973.36 3176.46L4979.2 3170.66L5096.31 3054.29L5213.44 2937.92L5219.28 2932.12L5213.44 2926.32L5096.31 2809.95L4979.2 2693.58L4973.36 2687.78L4979.2 2681.97L5096.31 2565.6L5213.44 2449.23L5219.28 2443.43L5213.44 2437.63L5096.31 2321.27L4979.2 2204.89L4973.36 2199.09L4979.2 2193.28L5096.31 2076.91L5213.44 1960.55L5219.28 1954.75L5213.44 1948.94L5096.31 1832.58L4979.2 1716.21L4973.36 1710.41L4979.2 1704.6L5096.31 1588.22L5213.44 1471.84L5219.28 1466.04L5213.44 1460.24L5096.31 1343.87L4979.2 1227.5L4973.36 1221.7L4979.2 1215.89L5096.31 1099.52L5213.44 983.15L5219.28 977.35L5213.44 971.55L5096.31 855.2L4979.2 738.84L4973.36 733.04L4979.2 727.23L5096.31 610.84L5213.44 494.48L5219.28 488.67L5213.44 482.87L5096.31 366.52L4979.2 250.15L4973.36 244.34L4979.2 238.53L5096.31 122.16L5213.44 5.84L5219.28 0ZM5337.51 0H5331.69L5328.77 2.9L5211.63 119.27L5094.51 235.63L5088.69 241.44L5094.54 247.24L5211.66 363.6L5328.78 479.98L5334.62 485.78L5328.78 491.59L5211.63 607.96L5094.51 724.32L5088.66 730.12L5094.51 735.93L5211.63 852.29L5328.75 968.66L5334.59 974.47L5328.75 980.27L5211.63 1096.64L5094.51 1213.01L5088.69 1218.84L5094.54 1224.64L5211.66 1341.01L5328.78 1457.38L5334.62 1463.19L5328.78 1468.99L5211.66 1585.36L5094.54 1701.72L5088.69 1707.53L5094.54 1713.33L5211.66 1829.69L5328.78 1946.06L5334.62 1951.87L5328.78 1957.68L5211.66 2074.05L5094.54 2190.41L5088.69 2196.21L5094.54 2202.02L5211.66 2318.38L5328.78 2434.75L5334.62 2440.56L5328.78 2446.36L5211.66 2562.73L5094.54 2679.1L5088.69 2684.84L5094.54 2690.64L5211.66 2807.01L5328.78 2923.38L5334.62 2929.19L5328.78 2934.99L5211.66 3051.36L5094.54 3167.73L5088.69 3173.53L5094.54 3179.33L5211.66 3295.69L5328.78 3412.07L5334.62 3417.87L5328.78 3423.68L5211.66 3540.05L5094.51 3656.44L5088.66 3662.24L5094.51 3668.05L5211.63 3784.41L5328.75 3900.78L5334.59 3906.59L5328.75 3912.39L5287.19 3953.68H5310.55L5334.55 3929.8L5358.55 3953.68H5381.91L5340.36 3912.39L5334.52 3906.59L5340.36 3900.78L5457.48 3784.41L5574.69 3668.05L5580.53 3662.24L5574.69 3656.44L5457.57 3540.08L5340.45 3423.71L5334.61 3417.9L5340.45 3412.1L5457.57 3295.72L5574.69 3179.36L5580.53 3173.56L5574.69 3167.76L5457.57 3051.39L5340.45 2935.02L5334.61 2929.22L5340.45 2923.41L5457.57 2807.04L5574.69 2690.67L5580.53 2684.87L5574.69 2679.07L5457.57 2562.7L5340.45 2446.33L5334.61 2440.53L5340.45 2434.72L5457.57 2318.35L5574.69 2201.99L5580.53 2196.18L5574.69 2190.38L5457.57 2074.02L5340.45 1957.65L5334.61 1951.84L5340.45 1946.03L5457.57 1829.66L5574.69 1713.3L5580.53 1707.5L5574.69 1701.69L5457.57 1585.33L5340.45 1468.96L5334.61 1463.16L5340.45 1457.35L5457.57 1340.98L5574.69 1224.61L5580.53 1218.81L5574.69 1213.01L5457.55 1096.64L5340.43 980.27L5334.59 974.47L5340.43 968.66L5457.55 852.29L5574.69 735.93L5580.53 730.12L5574.69 724.32L5457.55 607.96L5340.43 491.59L5334.59 485.78L5340.43 479.98L5457.55 363.6L5574.69 247.24L5580.53 241.44L5574.69 235.63L5457.55 119.27L5340.43 2.9L5337.51 0ZM5946.23 0H5922.87L5811.59 110.56L5700.31 221.13L5589.03 110.56L5477.75 0H5454.38L5460.23 5.8L5577.35 122.16L5694.47 238.53L5700.31 244.34L5694.47 250.15L5577.35 366.52L5460.23 482.84L5454.38 488.64L5460.23 494.45L5577.35 610.84L5694.47 727.21L5700.31 733.02L5694.47 738.82L5577.35 855.2L5460.23 971.57L5454.38 977.37L5460.23 983.17L5577.35 1099.54L5694.47 1215.91L5700.31 1221.72L5694.47 1227.52L5577.35 1343.89L5460.23 1460.26L5454.38 1466.06L5460.23 1471.86L5577.35 1588.22L5694.47 1704.6L5700.31 1710.41L5694.47 1716.21L5577.35 1832.58L5460.23 1948.94L5454.38 1954.75L5460.23 1960.55L5577.35 2076.91L5694.47 2193.28L5700.31 2199.09L5694.47 2204.89L5577.35 2321.27L5460.23 2437.63L5454.38 2443.43L5460.23 2449.23L5577.35 2565.6L5694.47 2681.97L5700.31 2687.78L5694.47 2693.58L5577.35 2809.95L5460.23 2926.32L5454.38 2932.12L5460.23 2937.92L5577.35 3054.29L5694.47 3170.66L5700.31 3176.46L5694.47 3182.27L5577.35 3298.64L5460.23 3415L5454.38 3420.81L5460.23 3426.61L5577.35 3542.97L5694.47 3659.34L5700.31 3665.15L5694.47 3670.96L5577.35 3787.33L5460.23 3903.69L5454.38 3909.49L5460.23 3915.3L5498.86 3953.68H5522.23L5477.75 3909.49L5589.03 3798.93L5700.31 3688.36L5811.59 3798.93L5922.87 3909.49L5878.39 3953.68H5901.76L5940.39 3915.3L5946.23 3909.49L5940.39 3903.69L5823.27 3787.33L5706.15 3670.96L5700.31 3665.15L5706.15 3659.34L5823.27 3542.97L5940.39 3426.61L5946.23 3420.81L5940.39 3415L5823.27 3298.64L5706.15 3182.27L5700.31 3176.46L5706.15 3170.66L5823.27 3054.29L5940.39 2937.92L5946.23 2932.12L5940.39 2926.32L5823.27 2809.95L5706.15 2693.58L5700.31 2687.78L5706.15 2681.97L5823.27 2565.6L5940.39 2449.23L5946.23 2443.43L5940.39 2437.63L5823.27 2321.27L5706.15 2204.89L5700.31 2199.09L5706.15 2193.28L5823.27 2076.91L5940.39 1960.55L5946.23 1954.75L5940.39 1948.94L5823.27 1832.58L5706.15 1716.21L5700.31 1710.41L5706.15 1704.6L5823.27 1588.22L5940.39 1471.84L5946.23 1466.04L5940.39 1460.24L5823.27 1343.87L5706.15 1227.5L5700.31 1221.7L5706.15 1215.89L5823.27 1099.52L5940.39 983.15L5946.23 977.35L5940.39 971.55L5823.27 855.2L5706.15 738.84L5700.31 733.04L5706.15 727.23L5823.27 610.84L5940.39 494.49L5946.23 488.68L5940.39 482.88L5823.27 366.52L5706.15 250.15L5700.31 244.34L5706.15 238.53L5823.27 122.16L5940.39 5.84L5946.23 0ZM6064.46 0H6058.62L6055.7 2.9L5938.58 119.27L5821.46 235.63L5815.61 241.44L5821.46 247.24L5938.58 363.6L6055.69 479.98L6061.53 485.78L6055.69 491.59L5938.58 607.96L5821.46 724.32L5815.61 730.12L5821.46 735.93L5938.58 852.29L6055.69 968.66L6061.53 974.47L6055.69 980.27L5938.58 1096.64L5821.46 1213.01L5815.61 1218.81L5821.46 1224.61L5938.58 1340.98L6055.69 1457.35L6061.53 1463.16L6055.69 1468.96L5938.57 1585.33L5821.45 1701.69L5815.6 1707.5L5821.45 1713.3L5938.57 1829.66L6055.69 1946.03L6061.53 1951.84L6055.69 1957.65L5938.57 2074.02L5821.45 2190.38L5815.6 2196.18L5821.45 2201.99L5938.57 2318.35L6055.69 2434.72L6061.53 2440.53L6055.69 2446.33L5938.57 2562.7L5821.45 2679.07L5815.6 2684.87L5821.45 2690.67L5938.57 2807.04L6055.69 2923.41L6061.53 2929.22L6055.69 2935.02L5938.57 3051.39L5821.45 3167.76L5815.6 3173.56L5821.45 3179.36L5938.57 3295.72L6055.69 3412.1L6061.53 3417.9L6055.69 3423.71L5938.57 3540.08L5821.46 3656.44L5815.61 3662.24L5821.46 3668.05L5938.58 3784.41L6055.69 3900.78L6061.53 3906.59L6055.69 3912.39L6014.13 3953.68H6037.49L6061.49 3929.8L6085.49 3953.68H6108.85L6067.3 3912.39L6061.46 3906.59L6067.3 3900.78L6184.42 3784.41L6301.54 3668.05L6307.38 3662.24L6301.54 3656.44L6184.42 3540.08L6067.3 3423.71L6061.46 3417.9L6067.3 3412.1L6184.42 3295.72L6301.54 3179.36L6307.38 3173.56L6301.54 3167.76L6184.42 3051.39L6067.3 2935.02L6061.46 2929.22L6067.3 2923.41L6184.42 2807.04L6301.54 2690.67L6307.38 2684.87L6301.54 2679.07L6184.42 2562.7L6067.3 2446.33L6061.46 2440.53L6067.3 2434.72L6184.42 2318.35L6301.54 2201.99L6307.38 2196.18L6301.54 2190.38L6184.42 2074.02L6067.3 1957.65L6061.46 1951.84L6067.3 1946.03L6184.42 1829.66L6301.54 1713.3L6307.38 1707.5L6301.54 1701.69L6184.42 1585.33L6067.3 1468.96L6061.46 1463.16L6067.3 1457.35L6184.42 1340.98L6301.54 1224.61L6307.38 1218.81L6301.54 1213.01L6184.5 1096.64L6067.38 980.27L6061.54 974.47L6067.38 968.66L6184.5 852.29L6301.62 735.93L6307.46 730.12L6301.62 724.32L6184.5 607.96L6067.38 491.59L6061.54 485.78L6067.38 479.98L6184.5 363.6L6301.62 247.24L6307.46 241.44L6301.62 235.63L6184.5 119.27L6067.38 2.9L6064.46 0ZM6673.18 0H6649.82L6538.54 110.56L6427.26 221.13L6315.98 110.56L6204.69 0H6181.32L6187.17 5.8L6304.29 122.16L6421.41 238.53L6427.25 244.34L6421.41 250.15L6304.3 366.52L6187.18 482.84L6181.33 488.64L6187.18 494.45L6304.3 610.84L6421.42 727.21L6427.26 733.02L6421.42 738.82L6304.3 855.2L6187.18 971.57L6181.33 977.37L6187.18 983.17L6304.3 1099.54L6421.42 1215.91L6427.26 1221.72L6421.42 1227.52L6304.3 1343.89L6187.18 1460.26L6181.33 1466.06L6187.18 1471.86L6304.3 1588.22L6421.42 1704.6L6427.26 1710.41L6421.42 1716.21L6304.3 1832.58L6187.18 1948.94L6181.33 1954.75L6187.18 1960.55L6304.3 2076.91L6421.42 2193.28L6427.26 2199.09L6421.42 2204.89L6304.3 2321.27L6187.18 2437.63L6181.33 2443.43L6187.18 2449.23L6304.3 2565.6L6421.42 2681.97L6427.26 2687.78L6421.42 2693.58L6304.3 2809.95L6187.18 2926.32L6181.33 2932.12L6187.18 2937.92L6304.3 3054.29L6421.42 3170.66L6427.26 3176.46L6421.42 3182.27L6304.3 3298.64L6187.18 3415L6181.33 3420.81L6187.18 3426.61L6304.3 3542.97L6421.42 3659.34L6427.26 3665.15L6421.42 3670.96L6304.3 3787.33L6187.18 3903.69L6181.33 3909.49L6187.18 3915.3L6225.81 3953.68H6249.18L6204.69 3909.49L6315.97 3798.93L6427.25 3688.36L6538.53 3798.93L6649.81 3909.49L6605.33 3953.68H6628.69L6667.32 3915.3L6673.16 3909.49L6667.32 3903.69L6550.2 3787.33L6433.08 3670.96L6427.24 3665.15L6433.08 3659.34L6550.2 3542.97L6667.32 3426.61L6673.16 3420.81L6667.32 3415L6550.22 3298.64L6433.1 3182.27L6427.26 3176.46L6433.1 3170.66L6550.22 3054.29L6667.34 2937.92L6673.18 2932.12L6667.34 2926.32L6550.22 2809.95L6433.1 2693.58L6427.26 2687.78L6433.1 2681.97L6550.22 2565.6L6667.34 2449.23L6673.18 2443.43L6667.34 2437.63L6550.22 2321.27L6433.1 2204.89L6427.26 2199.09L6433.1 2193.28L6550.22 2076.91L6667.34 1960.55L6673.18 1954.75L6667.34 1948.94L6550.22 1832.58L6433.1 1716.21L6427.26 1710.41L6433.1 1704.6L6550.22 1588.22L6667.34 1471.84L6673.18 1466.04L6667.34 1460.24L6550.22 1343.87L6433.1 1227.5L6427.26 1221.7L6433.1 1215.89L6550.22 1099.52L6667.34 983.15L6673.18 977.35L6667.34 971.55L6550.22 855.2L6433.1 738.84L6427.26 733.04L6433.1 727.23L6550.22 610.84L6667.34 494.48L6673.18 488.67L6667.34 482.87L6550.22 366.52L6433.1 250.15L6427.26 244.34L6433.1 238.53L6550.22 122.16L6667.34 5.84L6673.18 0ZM6791.41 0H6785.57L6782.65 2.9L6665.53 119.27L6548.41 235.63L6542.56 241.44L6548.41 247.24L6665.53 363.6L6782.69 479.98L6788.53 485.78L6782.69 491.59L6665.53 607.96L6548.41 724.32L6542.56 730.12L6548.41 735.93L6665.53 852.29L6782.69 968.66L6788.53 974.47L6782.69 980.27L6665.53 1096.64L6548.41 1213.01L6542.56 1218.81L6548.41 1224.61L6665.53 1340.98L6782.69 1457.35L6788.53 1463.16L6782.69 1468.96L6665.57 1585.33L6548.45 1701.69L6542.6 1707.5L6548.45 1713.3L6665.57 1829.66L6782.69 1946.03L6788.53 1951.84L6782.69 1957.65L6665.57 2074.02L6548.45 2190.38L6542.6 2196.18L6548.45 2201.99L6665.57 2318.35L6782.69 2434.72L6788.53 2440.53L6782.69 2446.33L6665.57 2562.7L6548.45 2679.07L6542.6 2684.87L6548.45 2690.67L6665.57 2807.04L6782.69 2923.41L6788.53 2929.22L6782.69 2935.02L6665.57 3051.39L6548.45 3167.76L6542.6 3173.56L6548.45 3179.36L6665.57 3295.72L6782.69 3412.1L6788.53 3417.9L6782.69 3423.71L6665.57 3540.08L6548.41 3656.44L6542.56 3662.24L6548.41 3668.05L6665.53 3784.41L6782.69 3900.78L6788.53 3906.59L6782.69 3912.39L6741.13 3953.68H6764.49L6788.49 3929.8L6812.49 3953.68H6835.85L6794.29 3912.39L6788.45 3906.59L6794.29 3900.78L6911.41 3784.41L7028.53 3668.05L7034.37 3662.24L7028.53 3656.44L6911.41 3540.08L6794.29 3423.71L6788.45 3417.9L6794.29 3412.1L6911.41 3295.72L7028.53 3179.36L7034.37 3173.56L7028.53 3167.76L6911.41 3051.39L6794.29 2935.02L6788.45 2929.22L6794.29 2923.41L6911.41 2807.04L7028.53 2690.67L7034.37 2684.87L7028.53 2679.07L6911.41 2562.7L6794.29 2446.33L6788.45 2440.53L6794.29 2434.72L6911.41 2318.35L7028.53 2201.99L7034.37 2196.18L7028.53 2190.38L6911.41 2074.02L6794.29 1957.65L6788.45 1951.84L6794.29 1946.03L6911.41 1829.66L7028.53 1713.3L7034.37 1707.5L7028.53 1701.69L6911.41 1585.33L6794.29 1468.96L6788.45 1463.16L6794.29 1457.35L6911.41 1340.98L7028.53 1224.61L7034.37 1218.81L7028.53 1213.01L6911.45 1096.64L6794.33 980.27L6788.49 974.47L6794.33 968.66L6911.45 852.29L7028.57 735.93L7034.41 730.12L7028.57 724.32L6911.45 607.96L6794.33 491.59L6788.49 485.78L6794.33 479.98L6911.45 363.6L7028.57 247.24L7034.41 241.44L7028.57 235.63L6911.45 119.27L6794.33 2.9L6791.41 0ZM7400.13 0H7376.77L7265.49 110.56L7154.21 221.13L7042.93 110.56L6931.69 0H6908.32L6914.17 5.8L7031.29 122.16L7148.41 238.53L7154.25 244.34L7148.41 250.15L7031.25 366.52L6914.13 482.84L6908.28 488.64L6914.13 494.45L7031.25 610.84L7148.37 727.21L7154.21 733.02L7148.37 738.82L7031.25 855.2L6914.13 971.57L6908.28 977.37L6914.13 983.17L7031.25 1099.54L7148.37 1215.91L7154.21 1221.72L7148.37 1227.52L7031.25 1343.89L6914.13 1460.26L6908.28 1466.06L6914.13 1471.86L7031.25 1588.22L7148.37 1704.6L7154.21 1710.41L7148.37 1716.21L7031.25 1832.58L6914.13 1948.94L6908.28 1954.75L6914.13 1960.55L7031.25 2076.91L7148.37 2193.28L7154.21 2199.09L7148.37 2204.89L7031.25 2321.27L6914.13 2437.63L6908.28 2443.43L6914.13 2449.23L7031.25 2565.6L7148.37 2681.97L7154.21 2687.78L7148.37 2693.58L7031.25 2809.95L6914.13 2926.32L6908.28 2932.12L6914.13 2937.92L7031.25 3054.29L7148.37 3170.66L7154.21 3176.46L7148.37 3182.27L7031.25 3298.64L6914.13 3415L6908.28 3420.81L6914.13 3426.61L7031.25 3542.97L7148.37 3659.34L7154.21 3665.15L7148.37 3670.96L7031.25 3787.33L6914.13 3903.69L6908.28 3909.49L6914.13 3915.3L6952.77 3953.68H6976.13L6931.69 3909.49L7042.97 3798.93L7154.25 3688.36L7265.53 3798.93L7376.81 3909.49L7332.34 3953.68H7355.69L7394.32 3915.3L7400.16 3909.49L7394.32 3903.69L7277.2 3787.33L7160.08 3670.96L7154.24 3665.15L7160.08 3659.34L7277.2 3542.97L7394.32 3426.61L7400.16 3420.81L7394.32 3415L7277.17 3298.64L7160.05 3182.27L7154.21 3176.46L7160.05 3170.66L7277.17 3054.29L7394.29 2937.92L7400.13 2932.12L7394.29 2926.32L7277.17 2809.95L7160.05 2693.58L7154.21 2687.78L7160.05 2681.97L7277.17 2565.6L7394.29 2449.23L7400.13 2443.43L7394.29 2437.63L7277.17 2321.27L7160.05 2204.89L7154.21 2199.09L7160.05 2193.28L7277.17 2076.91L7394.29 1960.55L7400.13 1954.75L7394.29 1948.94L7277.17 1832.58L7160.05 1716.21L7154.21 1710.41L7160.05 1704.6L7277.17 1588.22L7394.29 1471.84L7400.13 1466.04L7394.29 1460.24L7277.17 1343.87L7160.05 1227.5L7154.21 1221.7L7160.05 1215.89L7277.17 1099.52L7394.29 983.15L7400.13 977.35L7394.29 971.55L7277.17 855.2L7160.05 738.84L7154.21 733.04L7160.05 727.23L7277.17 610.84L7394.29 494.49L7400.13 488.68L7394.29 482.88L7277.17 366.52L7160.05 250.15L7154.21 244.34L7160.05 238.53L7277.17 122.16L7394.29 5.84L7400.13 0ZM7518.36 0H7512.52L7509.6 2.9L7392.48 119.27L7275.36 235.63L7269.51 241.44L7275.36 247.24L7392.48 363.6L7509.6 479.98L7515.44 485.78L7509.6 491.59L7392.48 607.96L7275.36 724.32L7269.51 730.12L7275.36 735.93L7392.48 852.29L7509.6 968.66L7515.44 974.47L7509.6 980.27L7392.48 1096.64L7275.36 1213.01L7269.51 1218.81L7275.36 1224.61L7392.48 1340.98L7509.6 1457.35L7515.44 1463.16L7509.6 1468.96L7392.48 1585.33L7275.36 1701.69L7269.51 1707.5L7275.36 1713.3L7392.48 1829.66L7509.6 1946.03L7515.44 1951.84L7509.6 1957.65L7392.48 2074.02L7275.36 2190.38L7269.51 2196.18L7275.36 2201.99L7392.48 2318.35L7509.6 2434.72L7515.44 2440.53L7509.6 2446.33L7392.48 2562.7L7275.36 2679.07L7269.51 2684.87L7275.36 2690.67L7392.48 2807.04L7509.6 2923.41L7515.44 2929.22L7509.6 2935.02L7392.48 3051.39L7275.36 3167.76L7269.51 3173.56L7275.36 3179.36L7392.48 3295.72L7509.6 3412.1L7515.44 3417.9L7509.6 3423.71L7392.48 3540.08L7275.36 3656.44L7269.51 3662.24L7275.36 3668.05L7392.48 3784.41L7509.6 3900.78L7515.44 3906.59L7509.6 3912.39L7468.04 3953.68H7491.41L7515.41 3929.8L7539.41 3953.68H7562.77L7521.21 3912.39L7515.37 3906.59L7521.21 3900.78L7638.33 3784.41L7755.45 3668.05L7761.29 3662.24L7755.45 3656.44L7638.33 3540.08L7521.21 3423.71L7515.37 3417.9L7521.21 3412.1L7638.33 3295.72L7755.45 3179.36L7761.29 3173.56L7755.45 3167.76L7638.33 3051.39L7521.21 2935.02L7515.37 2929.22L7521.21 2923.41L7638.33 2807.04L7755.45 2690.67L7761.29 2684.87L7755.45 2679.07L7638.33 2562.7L7521.21 2446.33L7515.37 2440.53L7521.21 2434.72L7638.33 2318.35L7755.45 2201.99L7761.29 2196.18L7755.45 2190.38L7638.33 2074.02L7521.21 1957.65L7515.37 1951.84L7521.21 1946.03L7638.33 1829.66L7755.45 1713.3L7761.29 1707.5L7755.45 1701.69L7638.33 1585.33L7521.21 1468.96L7515.37 1463.16L7521.21 1457.35L7638.33 1340.98L7755.45 1224.61L7761.29 1218.81L7755.45 1213.01L7638.4 1096.64L7521.28 980.27L7515.44 974.47L7521.28 968.66L7638.4 852.29L7755.52 735.93L7761.36 730.12L7755.52 724.32L7638.4 607.96L7521.28 491.59L7515.44 485.78L7521.28 479.98L7638.4 363.6L7755.52 247.24L7761.36 241.44L7755.52 235.63L7638.4 119.27L7521.28 2.9L7518.36 0ZM8127.09 0H8103.69L7992.44 110.56L7881.16 221.13L7769.89 110.56L7658.6 0H7635.24L7641.08 5.8L7758.21 122.16L7875.32 238.53L7881.16 244.34L7875.32 250.15L7758.21 366.52L7641.08 482.84L7635.24 488.64L7641.08 494.45L7758.21 610.84L7875.32 727.21L7881.16 733.02L7875.32 738.82L7758.21 855.2L7641.08 971.57L7635.24 977.37L7641.08 983.17L7758.21 1099.54L7875.32 1215.91L7881.16 1221.72L7875.32 1227.52L7758.21 1343.89L7641.08 1460.26L7635.24 1466.06L7641.08 1471.86L7758.21 1588.22L7875.32 1704.6L7881.16 1710.41L7875.32 1716.21L7758.21 1832.58L7641.08 1948.94L7635.24 1954.75L7641.08 1960.55L7758.21 2076.91L7875.32 2193.28L7881.16 2199.09L7875.32 2204.89L7758.21 2321.27L7641.08 2437.63L7635.24 2443.43L7641.08 2449.23L7758.21 2565.6L7875.32 2681.97L7881.16 2687.78L7875.32 2693.58L7758.21 2809.95L7641.08 2926.32L7635.24 2932.12L7641.08 2937.92L7758.21 3054.29L7875.32 3170.66L7881.16 3176.46L7875.32 3182.27L7758.21 3298.64L7641.08 3415L7635.24 3420.81L7641.08 3426.61L7758.21 3542.97L7875.32 3659.34L7881.16 3665.15L7875.32 3670.96L7758.21 3787.33L7641.08 3903.69L7635.24 3909.49L7641.08 3915.3L7679.72 3953.68H7703.08L7658.6 3909.49L7769.89 3798.93L7881.16 3688.36L7992.44 3798.93L8103.69 3909.49L8059.21 3953.68H8082.57L8121.21 3915.3L8127.05 3909.49L8121.21 3903.69L8004.08 3787.33L7886.97 3670.96L7881.12 3665.15L7886.97 3659.34L8004.08 3542.97L8121.21 3426.61L8127.05 3420.81L8121.21 3415L8004.12 3298.64L7887.01 3182.27L7881.16 3176.46L7887.01 3170.66L8004.12 3054.29L8121.25 2937.92L8127.09 2932.12L8121.25 2926.32L8004.12 2809.95L7887.01 2693.58L7881.16 2687.78L7887.01 2681.97L8004.12 2565.6L8121.25 2449.23L8127.09 2443.43L8121.25 2437.63L8004.12 2321.27L7887.01 2204.89L7881.16 2199.09L7887.01 2193.28L8004.12 2076.91L8121.25 1960.55L8127.09 1954.75L8121.25 1948.94L8004.12 1832.58L7887.01 1716.21L7881.16 1710.41L7887.01 1704.6L8004.12 1588.22L8121.25 1471.84L8127.09 1466.04L8121.25 1460.24L8004.12 1343.87L7887.01 1227.5L7881.16 1221.7L7887.01 1215.89L8004.12 1099.52L8121.25 983.15L8127.09 977.35L8121.25 971.55L8004.12 855.2L7887.01 738.84L7881.16 733.04L7887.01 727.23L8004.12 610.84L8121.25 494.48L8127.09 488.67L8121.25 482.87L8004.12 366.52L7887.01 250.15L7881.16 244.34L7887.01 238.53L8004.12 122.16L8121.25 5.84L8127.09 0ZM8245.31 0H8239.47L8236.55 2.9L8119.44 119.27L8002.31 235.63L7996.46 241.44L8002.31 247.24L8119.44 363.6L8236.55 479.98L8242.39 485.78L8236.55 491.59L8119.44 607.96L8002.31 724.32L7996.46 730.12L8002.31 735.93L8119.44 852.29L8236.55 968.66L8242.39 974.47L8236.55 980.27L8119.44 1096.64L8002.31 1213.01L7996.46 1218.81L8002.31 1224.61L8119.44 1340.98L8236.55 1457.35L8242.39 1463.16L8236.55 1468.96L8119.44 1585.33L8002.31 1701.69L7996.46 1707.5L8002.31 1713.3L8119.44 1829.66L8236.55 1946.03L8242.39 1951.84L8236.55 1957.65L8119.44 2074.02L8002.31 2190.38L7996.46 2196.18L8002.31 2201.99L8119.44 2318.35L8236.55 2434.72L8242.39 2440.53L8236.55 2446.33L8119.44 2562.7L8002.31 2679.07L7996.46 2684.87L8002.31 2690.67L8119.44 2807.04L8236.55 2923.41L8242.39 2929.22L8236.55 2935.02L8119.44 3051.39L8002.31 3167.76L7996.46 3173.56L8002.31 3179.36L8119.44 3295.72L8236.55 3412.1L8242.39 3417.9L8236.55 3423.71L8119.44 3540.08L8002.31 3656.44L7996.46 3662.24L8002.31 3668.05L8119.44 3784.41L8236.55 3900.78L8242.39 3906.59L8236.55 3912.39L8195 3953.68H8218.36L8242.36 3929.8L8266.36 3953.68H8289.72L8248.16 3912.39L8242.32 3906.59L8248.16 3900.78L8365.28 3784.41L8482.41 3668.05L8488.25 3662.24L8482.41 3656.44L8365.28 3540.08L8248.16 3423.71L8242.32 3417.9L8248.16 3412.1L8365.28 3295.72L8482.41 3179.36L8488.25 3173.56L8482.41 3167.76L8365.28 3051.39L8248.16 2935.02L8242.32 2929.22L8248.16 2923.41L8365.28 2807.04L8482.41 2690.67L8488.25 2684.87L8482.41 2679.07L8365.28 2562.7L8248.16 2446.33L8242.32 2440.53L8248.16 2434.72L8365.28 2318.35L8482.41 2201.99L8488.25 2196.18L8482.41 2190.38L8365.28 2074.02L8248.16 1957.65L8242.32 1951.84L8248.16 1946.03L8365.28 1829.66L8482.41 1713.3L8488.25 1707.5L8482.41 1701.69L8365.28 1585.33L8248.16 1468.96L8242.32 1463.16L8248.16 1457.35L8365.28 1340.98L8482.41 1224.61L8488.25 1218.81L8482.41 1213.01L8365.35 1096.64L8248.23 980.27L8242.39 974.47L8248.23 968.66L8365.35 852.29L8482.48 735.93L8488.32 730.12L8482.48 724.32L8365.35 607.96L8248.23 491.59L8242.39 485.78L8248.23 479.98L8365.35 363.6L8482.48 247.24L8488.32 241.44L8482.48 235.63L8365.35 119.27L8248.23 2.9L8245.31 0ZM8854.04 0H8830.69L8719.39 110.56L8608.12 221.13L8496.84 110.56L8385.56 0H8362.19L8368.03 5.8L8485.16 122.16L8602.28 238.53L8608.12 244.34L8602.28 250.15L8485.16 366.52L8368.03 482.84L8362.19 488.64L8368.03 494.45L8485.16 610.84L8602.28 727.21L8608.12 733.02L8602.28 738.82L8485.16 855.2L8368.03 971.57L8362.19 977.37L8368.03 983.17L8485.16 1099.54L8602.28 1215.91L8608.12 1221.72L8602.28 1227.52L8485.16 1343.89L8368.03 1460.26L8362.19 1466.06L8368.03 1471.86L8485.16 1588.22L8602.28 1704.6L8608.12 1710.41L8602.28 1716.21L8485.16 1832.58L8368.03 1948.94L8362.19 1954.75L8368.03 1960.55L8485.16 2076.91L8602.28 2193.28L8608.12 2199.09L8602.28 2204.89L8485.16 2321.27L8368.03 2437.63L8362.19 2443.43L8368.03 2449.23L8485.16 2565.6L8602.28 2681.97L8608.12 2687.78L8602.28 2693.58L8485.16 2809.95L8368.03 2926.32L8362.19 2932.12L8368.03 2937.92L8485.16 3054.29L8602.28 3170.66L8608.12 3176.46L8602.28 3182.27L8485.16 3298.64L8368.03 3415L8362.19 3420.81L8368.03 3426.61L8485.16 3542.97L8602.28 3659.34L8608.12 3665.15L8602.28 3670.96L8485.16 3787.33L8368.03 3903.69L8362.19 3909.49L8368.03 3915.3L8406.67 3953.68H8430.03L8385.56 3909.49L8496.84 3798.93L8608.12 3688.36L8719.39 3798.93L8830.69 3909.49L8786.21 3953.68H8809.57L8848.21 3915.3L8854.05 3909.49L8848.21 3903.69L8731.08 3787.33L8613.97 3670.96L8608.13 3665.15L8613.97 3659.34L8731.08 3542.97L8848.21 3426.61L8854.05 3420.81L8848.21 3415L8731.07 3298.64L8613.96 3182.27L8608.12 3176.46L8613.96 3170.66L8731.07 3054.29L8848.2 2937.92L8854.04 2932.12L8848.2 2926.32L8731.07 2809.95L8613.96 2693.58L8608.12 2687.78L8613.96 2681.97L8731.07 2565.6L8848.2 2449.23L8854.04 2443.43L8848.2 2437.63L8731.07 2321.27L8613.96 2204.89L8608.12 2199.09L8613.96 2193.28L8731.07 2076.91L8848.2 1960.55L8854.04 1954.75L8848.2 1948.94L8731.07 1832.58L8613.96 1716.21L8608.12 1710.41L8613.96 1704.6L8731.07 1588.22L8848.2 1471.84L8854.04 1466.04L8848.2 1460.24L8731.07 1343.87L8613.96 1227.5L8608.12 1221.7L8613.96 1215.89L8731.07 1099.52L8848.2 983.15L8854.04 977.35L8848.2 971.55L8731.07 855.2L8613.96 738.84L8608.12 733.04L8613.96 727.23L8731.07 610.84L8848.2 494.48L8854.04 488.67L8848.2 482.87L8731.07 366.52L8613.96 250.15L8608.12 244.34L8613.96 238.53L8731.07 122.16L8848.2 5.84L8854.04 0ZM8953.38 469.92V446.71L8858.07 352L8746.78 241.44L8858.07 130.84L8953.38 36.14V12.96L8846.38 119.27L8729.26 235.63L8723.42 241.44L8729.26 247.24L8846.39 363.6L8953.38 469.92ZM8953.38 958.6V935.39L8858.07 840.68L8746.78 730.12L8858.07 619.56L8953.38 524.84V501.64L8846.38 607.96L8729.26 724.32L8723.42 730.12L8729.26 735.93L8846.39 852.29L8953.38 958.6ZM8953.38 1447.29V1424.08L8858.07 1329.37L8746.78 1218.84L8858.07 1108.28L8953.38 1013.57V990.36L8846.38 1096.67L8729.25 1213.04L8723.41 1218.84L8729.25 1224.64L8846.38 1341.01L8953.38 1447.29ZM8953.38 1935.98V1912.77L8858.07 1818.06L8746.78 1707.5L8858.07 1596.94L8953.38 1502.23V1479.02L8846.38 1585.33L8729.25 1701.69L8723.41 1707.5L8729.25 1713.3L8846.38 1829.66L8953.38 1935.98ZM8953.38 2424.66V2401.45L8858.07 2306.75L8746.78 2196.18L8858.07 2085.62L8953.38 1990.92V1967.7L8846.38 2074.02L8729.25 2190.38L8723.41 2196.18L8729.25 2201.99L8846.38 2318.35L8953.38 2424.66ZM8953.38 2913.35V2890.14L8858.07 2795.43L8746.78 2684.84L8858.07 2574.28L8953.38 2479.57V2456.36L8846.38 2562.67L8729.25 2679.04L8723.41 2684.84L8729.25 2690.64L8846.39 2807.04L8953.38 2913.35ZM8953.38 3402.04V3378.84L8858.07 3284.13L8746.78 3173.57L8858.07 3063.01L8953.38 2968.3V2945.09L8846.38 3051.4L8729.25 3167.77L8723.41 3173.57L8729.25 3179.37L8846.38 3295.73L8953.38 3402.04ZM8953.38 3890.73V3867.52L8858.07 3772.84L8746.78 3662.24L8858.07 3551.68L8953.38 3456.97V3433.76L8846.38 3540.08L8729.26 3656.44L8723.42 3662.24L8729.26 3668.05L8846.39 3784.41L8953.38 3890.73ZM8953.38 3945.66V3922.45L8921.95 3953.68H8945.31L8953.38 3945.66Z" fill="#676767" fill-opacity="0.06"/>
</g>
</svg>
