<svg width="78" height="78" viewBox="0 0 78 78" fill="none" xmlns="http://www.w3.org/2000/svg">
<path d="M39.5973 19.4856C39.5543 19.4842 39.5114 19.4827 39.4685 19.4812C39.3129 19.4758 39.1576 19.4704 39.0004 19.4704C38.8431 19.4704 38.6879 19.4758 38.5322 19.4812C38.4893 19.4827 38.4464 19.4842 38.4034 19.4856C33.6884 19.6352 29.4095 21.5327 26.1924 24.5516L39.5973 19.4856ZM39.5973 19.4856C44.3107 19.6352 48.5888 21.5303 51.8051 24.5492L39.5973 19.4856ZM14.1762 14.2243L13.6952 14.7053L14.1762 15.1863L23.5638 24.5739C20.6154 27.9095 18.7294 32.2049 18.4383 36.9268H5.17383H4.4936V37.607V38.8009V39.4811H5.17383H18.4382C18.7287 44.2015 20.6139 48.4955 23.5615 51.8308L14.1762 61.2169L13.6952 61.6979L14.1762 62.1789L15.0207 63.0234L15.5017 63.5044L15.9827 63.0234L25.3678 53.6382C28.7034 56.5882 32.9998 58.4756 37.7232 58.7668V72.0305V72.7107H38.4034H39.5973H40.2775V72.0305V58.7661C44.9994 58.4757 49.2949 56.5897 52.6305 53.6406L62.0125 63.0226L62.4935 63.5036L62.9745 63.0226L63.8189 62.1781L64.2999 61.6971L63.8189 61.2161L54.4369 51.834C57.3853 48.4985 59.2713 44.203 59.5624 39.4811H72.8269H73.5071V38.8009V37.607V36.9268H72.8269H59.5625C59.272 32.2034 57.3845 27.907 54.4339 24.5713L63.8189 15.1863L64.2999 14.7053L63.8189 14.2243L62.9745 13.3798L62.4935 12.8988L62.0125 13.3798L52.6271 22.7652C49.2918 19.8182 44.9978 17.933 40.2775 17.6419V4.37744V3.69721H39.5973H38.4034H37.7232V4.37744V17.6418C33.0013 17.9323 28.7058 19.8183 25.3702 22.7674L15.9827 13.3798L15.5017 12.8988L15.0207 13.3798L14.1762 14.2243ZM25.8439 25.8617C26.1062 25.5824 26.3778 25.3108 26.6579 25.0476C29.7593 22.1373 33.882 20.3096 38.425 20.1655L38.4252 20.1654C38.4724 20.1639 38.518 20.1624 38.5625 20.1608C38.716 20.1555 38.856 20.1507 39.0004 20.1507C39.1447 20.1507 39.2847 20.1555 39.4382 20.1608C39.4827 20.1624 39.5283 20.1639 39.5755 20.1654L39.5757 20.1655C44.1173 20.3096 48.2392 22.1351 51.3396 25.0452L51.34 25.0456C51.6202 25.3081 51.8915 25.5787 52.1532 25.858L52.1537 25.8585C55.0671 28.9606 56.8955 33.084 57.0389 37.6285L57.0389 37.6288C57.0404 37.676 57.042 37.7216 57.0435 37.7661C57.0488 37.9196 57.0537 38.0596 57.0537 38.204C57.0537 38.3483 57.0488 38.4883 57.0435 38.6419C57.042 38.6864 57.0404 38.732 57.0389 38.7792L57.0389 38.7793C56.8947 43.3225 55.0685 47.4451 52.1568 50.5463C51.8944 50.8256 51.6227 51.0973 51.3425 51.3606C48.2412 54.2715 44.1186 56.0991 39.5758 56.2425L39.5755 56.2425C39.5284 56.244 39.4827 56.2456 39.4383 56.2471C39.2847 56.2524 39.1447 56.2573 39.0004 56.2573C38.856 56.2573 38.716 56.2524 38.5625 56.2471C38.518 56.2456 38.4724 56.244 38.4252 56.2425L38.425 56.2425C33.8806 56.0983 29.7574 54.2708 26.6554 51.3585C26.3751 51.0944 26.1038 50.8238 25.8426 50.5443L25.8416 50.5432C22.9314 47.4427 21.1052 43.3209 20.9618 38.7794L20.9618 38.7792C20.9603 38.7319 20.9587 38.6863 20.9572 38.6418C20.9519 38.4883 20.9471 38.3483 20.9471 38.204C20.9471 38.0596 20.9519 37.9196 20.9572 37.7661C20.9587 37.7216 20.9603 37.676 20.9618 37.6288L20.9618 37.6286C21.106 33.0855 22.9322 28.9628 25.8439 25.8617Z" fill="#C1A479" stroke="#C1A479" stroke-width="1.36047"/>
</svg>
