<svg width="80" height="74" viewBox="0 0 80 74" fill="none" xmlns="http://www.w3.org/2000/svg">
<path fill-rule="evenodd" clip-rule="evenodd" d="M51.6719 34.6562C50.6406 34.6562 50.6406 33.0938 51.6719 33.0938H63.4375C64.4688 33.0938 64.4688 34.6562 63.4375 34.6562H51.6719ZM48.7812 30.5312C47.75 30.5312 47.75 28.9688 48.7812 28.9688H66.3281C67.3594 28.9688 67.3594 30.5312 66.3281 30.5312H48.7812ZM17.6719 23.0312L18.9062 20.9219C19.5469 19.8281 21.1094 19.8281 21.75 20.9219L23 23.0469L25.4062 23.5781C26.625 23.8437 27.1406 25.3281 26.2812 26.2812L24.6406 28.125L24.875 30.5938C25 31.8438 23.7344 32.7656 22.5781 32.2656L20.3125 31.2812L18.0469 32.2656C16.8906 32.7812 15.625 31.8438 15.75 30.5938L16 28.125L14.3594 26.2812C13.5 25.3281 14.0156 23.8437 15.2344 23.5781L17.6406 23.0469C17.6562 23.0469 17.6562 23.0469 17.6719 23.0312ZM29.6094 15.8906H11.0156C10.2031 15.8906 9.53125 16.5625 9.53125 17.3906V34.9531C9.53125 35.7656 10.2031 36.4375 11.0156 36.4375H15.8281C16.1094 36.4375 16.3438 36.5781 16.4844 36.7969L20.9375 42.9375L24.7188 36.7969C24.8594 36.5625 25.125 36.4219 25.3906 36.4219H29.625C30.4375 36.4219 31.1094 35.75 31.1094 34.9375V17.375C31.1094 16.5625 30.4219 15.8906 29.6094 15.8906ZM11.0156 14.3281H29.6094C31.2812 14.3281 32.6562 15.7031 32.6562 17.3906V32.1875H43.0625V15.1094C43.0625 13.2031 44.625 11.6406 46.5312 11.6406H68.5469C70.4531 11.6406 72.0156 13.2031 72.0156 15.1094V35.9062C72.0156 37.8125 70.4531 39.375 68.5469 39.375H63.9688L59.0312 47.3906C58.7188 47.9375 58.0156 47.9219 57.7031 47.4844L52.3906 40.1562V56.4688C52.3906 58.375 50.8281 59.9375 48.9219 59.9375H44.3438L39.4062 67.9531C39.0938 68.5 38.4062 68.4844 38.0938 68.0469L32.2188 59.9375H26.9375C25.0312 59.9375 23.4688 58.375 23.4688 56.4688V41.8281L21.6875 44.6875C21.375 45.2344 20.6719 45.2188 20.3594 44.7812L15.4375 37.9844H11.0156C9.34375 37.9844 7.96875 36.6094 7.96875 34.9375V17.375C7.96875 15.7031 9.34375 14.3281 11.0156 14.3281ZM32.6719 33.7656V34.9375C32.6719 36.6094 31.2969 37.9844 29.625 37.9844H25.8281L25.0312 39.2812V56.4531C25.0312 57.5 25.8906 58.3594 26.9375 58.3594H32.625C32.9062 58.3594 33.1406 58.5 33.2812 58.7188L38.6875 66.1875L43.2656 58.7344C43.4062 58.5 43.6719 58.3594 43.9375 58.3594H48.9531C50 58.3594 50.8594 57.5 50.8594 56.4531V39.3594H46.5625C44.6562 39.3594 43.0938 37.7969 43.0938 35.8906V33.75H32.6719V33.7656ZM55 18.1406L56.1719 16.1406C56.7969 15.0781 58.3281 15.0781 58.9375 16.1406L60.125 18.1562L62.3906 18.6406C63.5781 18.8906 64.0781 20.3438 63.25 21.2812C63.0938 21.4531 61.6875 22.9844 61.7031 23.0469L61.9375 25.3438C62.0625 26.5625 60.8281 27.4688 59.7031 26.9688L57.5469 26.0313L55.4375 26.9688C54.3125 27.4531 53.0781 26.5625 53.2031 25.3438L53.4219 23L51.875 21.2812C51.0469 20.3438 51.5469 18.9063 52.7344 18.6406L55 18.1406ZM68.5625 13.2031H46.5469C45.5 13.2031 44.6406 14.0625 44.6406 15.1094V35.9062C44.6406 36.9531 45.5 37.8125 46.5469 37.8125H52.2344C52.5156 37.8125 52.75 37.9531 52.8906 38.1719L58.2969 45.6406L62.8906 38.1875C63.0312 37.9531 63.2969 37.8125 63.5469 37.8125H68.5625C69.6094 37.8125 70.4688 36.9531 70.4688 35.9062V15.1094C70.4688 14.0625 69.6094 13.2031 68.5625 13.2031ZM34.2969 41.5469L36.1406 38.3906C36.9531 37.0156 38.9375 37.0156 39.7344 38.3906L41.5625 41.5469C41.6406 41.6875 41.75 41.75 41.9062 41.7969L45.4688 42.5625C47.0156 42.9062 47.6406 44.7812 46.5781 45.9844L44.1406 48.7031C44.0312 48.8125 44 48.9531 44.0156 49.1094L44.3906 52.7344C44.5469 54.3125 42.9375 55.4844 41.4844 54.8438L38.1406 53.375C38 53.3125 37.8594 53.3125 37.7188 53.375L34.375 54.8438C32.9219 55.4844 31.3125 54.3125 31.4688 52.7344L31.8438 49.1094C31.8594 48.9531 31.8281 48.8281 31.7188 48.7031L29.2812 45.9844C28.2031 44.7812 28.8438 42.9062 30.3906 42.5625L33.9531 41.7969C34.1094 41.75 34.2188 41.6719 34.2969 41.5469Z" fill="#C1A479"/>
</svg>
