<svg width="66" height="72" viewBox="0 0 66 72" fill="none" xmlns="http://www.w3.org/2000/svg">
<path d="M61.2125 5.18853C59.9934 3.96876 57.8586 3.40768 55.5021 3.68988C53.1037 3.97607 50.8694 5.04776 49.2074 6.71042C49.0035 6.91493 42.0229 14.3557 39.4559 17.0927L32.2382 15.5502L34.7116 13.0768L29.8538 8.21903L24.233 13.8398L10.9783 11.0072L3.61914 18.3636L27.399 29.8787L19.3984 38.4709L10.5958 36.7392L3.88408 43.4535L17.3414 49.0603L22.9482 62.5176L29.6619 55.8052L27.9302 47.0026L36.5217 39.0021L48.0368 62.7819L55.3939 55.4228L52.5613 42.168L58.182 36.5473L53.3242 31.6894L50.8508 34.1628L49.3083 26.9452C52.0453 24.3781 59.4861 17.3982 59.6933 17.1917C61.3533 15.5317 62.425 13.2973 62.7112 10.8989C62.9927 8.54306 62.4323 6.4083 61.2125 5.18853ZM51.7698 54.3518L48.9903 57.1326L37.5502 33.5081L24.3154 45.832L26.0623 54.709L24.1055 56.6651L19.8792 46.5212L9.73524 42.2948L11.6914 40.338L20.5684 42.085L32.8922 28.8502L9.26712 17.4101L12.048 14.6306L40.594 20.7308L41.2354 20.0475C43.7918 17.3231 50.1509 10.5444 51.3614 9.26217L51.297 11.8531C52.1336 11.8743 52.9351 12.2263 53.5546 12.8471C54.1748 13.4673 54.5267 14.2681 54.546 15.102L57.1349 15.043C55.8135 16.2899 49.0693 22.6165 46.3535 25.1636L45.6703 25.8051L51.7698 54.3518ZM59.4144 10.5052C59.2471 11.9089 58.6667 13.2681 57.8075 14.3265C57.6183 12.8942 56.9583 11.555 55.9025 10.4999C54.8487 9.4441 53.5101 8.78276 52.0772 8.59219C53.1409 7.73032 54.4961 7.15331 55.8959 6.98598C57.3806 6.80869 58.4762 7.14667 58.8653 7.53577C59.2537 7.92487 59.5923 9.02047 59.4144 10.5052Z" fill="#C1A479"/>
</svg>
