<svg width="52" height="55" viewBox="0 0 52 55" fill="none" xmlns="http://www.w3.org/2000/svg">
<path d="M34.421 19.0848C34.421 9.58106 26.668 1.91138 17.2476 1.91138C7.82726 1.91138 0.0742188 9.58106 0.0742188 19.0848C0.0742188 27.4214 5.99321 34.3408 13.8296 35.9247V39.0093H12.8292C12.4124 39.0093 11.9956 39.4261 11.9956 39.8429C11.9956 40.3431 12.4124 40.6766 12.8292 40.6766H13.8296V47.3459H20.5823V40.6766H21.5827C21.9995 40.6766 22.4163 40.3431 22.4163 39.8429C22.4163 39.4261 21.9995 39.0093 21.5827 39.0093H20.5823V35.9247C28.5021 34.3408 34.421 27.338 34.421 19.0848ZM17.2476 34.5909C8.74429 34.5909 1.74154 27.5881 1.74154 19.0848C1.74154 10.5814 8.74429 3.49533 17.2476 3.49533C25.751 3.49533 32.7537 10.4981 32.7537 19.0014C32.7537 27.5048 25.8343 34.5909 17.2476 34.5909Z" fill="#C1A479"/>
<path d="M13.8301 50.5971C13.8301 52.5146 15.3307 54.0151 17.2481 54.0151C19.1655 54.0151 20.6661 52.5146 20.6661 50.5971V49.0132H13.9134V50.5971H13.8301Z" fill="#C1A479"/>
<path d="M10.4115 16.167H8.74414V27.7549H10.4115V16.167Z" fill="#C1A479"/>
<path d="M15.5814 19.5854H13.9141V27.7553H15.5814V19.5854Z" fill="#C1A479"/>
<path d="M20.6654 19.5854H18.998V27.7553H20.6654V19.5854Z" fill="#C1A479"/>
<path d="M25.8353 23.0867H24.168V27.7552H25.8353V23.0867Z" fill="#C1A479"/>
<path d="M49.1765 38.592H30.8359V42.0934H49.1765V38.592Z" fill="#C1A479"/>
<path d="M49.1765 48.8467H30.8359V52.3481H49.1765V48.8467Z" fill="#C1A479"/>
<path d="M51.7605 33.5073H33.4199V37.0087H51.7605V33.5073Z" fill="#C1A479"/>
<path d="M51.7605 43.7612H33.4199V47.1792H51.7605V43.7612Z" fill="#C1A479"/>
<path d="M20.0825 13.833L31.0035 17.4177C30.9201 16.7508 30.8368 16.1672 30.67 15.5837L20.6661 12.249C20.6661 12.1656 20.6661 12.0823 20.6661 11.9989C20.6661 11.9156 20.6661 11.8322 20.6661 11.7488L27.5021 9.66467C27.0853 9.16447 26.5851 8.74764 26.0849 8.33081L20.1659 10.1649C19.5823 9.16447 18.4986 8.58091 17.2481 8.58091C15.3307 8.58091 13.8301 10.0815 13.8301 11.9989C13.8301 13.833 15.3307 15.4169 17.2481 15.4169C18.4986 15.4169 19.499 14.75 20.0825 13.833Z" fill="#C1A479"/>
<path d="M32.5877 8.08071L39.8405 5.82983C40.4241 6.83022 41.5078 7.49715 42.7583 7.49715C44.5924 7.49715 46.1763 5.99656 46.1763 4.07914C46.1763 2.24509 44.6757 0.661133 42.7583 0.661133C40.8409 0.661133 39.3403 2.16172 39.3403 4.07914C39.3403 4.16251 39.3403 4.16251 39.3403 4.24587L31.5039 6.66349C31.8374 7.16369 32.2542 7.58052 32.5877 8.08071Z" fill="#C1A479"/>
<path d="M42.6751 23.8367C44.5092 23.8367 46.0932 22.3362 46.0932 20.4187C46.0932 18.5013 44.5926 17.0007 42.6751 17.0007C41.508 17.0007 40.4243 17.6677 39.8407 18.5847L36.0059 17.3342C36.0892 17.9178 36.0892 18.418 36.0892 19.0015V19.0849L39.2571 20.1686C39.0904 22.0861 40.6744 23.8367 42.6751 23.8367Z" fill="#C1A479"/>
</svg>
