<svg width="71" height="75" viewBox="0 0 71 75" fill="none" xmlns="http://www.w3.org/2000/svg">
<path d="M19.4044 44.8253C19.4044 48.7951 22.6342 52.025 26.6041 52.025H44.5816C48.5515 52.025 51.7813 48.7953 51.7813 44.8253V26.8477C51.7813 22.8778 48.5516 19.6479 44.5816 19.6479H26.604C22.6342 19.6479 19.4043 22.8777 19.4043 26.8477L19.4044 44.8253ZM22.1399 26.8477C22.1399 24.386 24.1425 22.3834 26.6041 22.3834H44.5816C47.0433 22.3834 49.0459 24.386 49.0459 26.8477V44.8252C49.0459 47.2868 47.0433 49.2894 44.5816 49.2894H26.604C24.1424 49.2894 22.1397 47.2868 22.1397 44.8252L22.1399 26.8477Z" fill="#C1A479"/>
<path d="M32.4166 16.7812C33.1719 16.7812 33.7843 16.1687 33.7843 15.4135V11.4881C33.7843 10.7328 33.1719 10.1204 32.4166 10.1204C31.6612 10.1204 31.0488 10.7328 31.0488 11.4881V15.4135C31.0488 16.1687 31.6612 16.7812 32.4166 16.7812Z" fill="#C1A479"/>
<path d="M37.4004 11.4881V15.4135C37.4004 16.1687 38.0127 16.7812 38.7681 16.7812C39.5235 16.7812 40.1358 16.1687 40.1358 15.4135V11.4881C40.1358 10.7328 39.5235 10.1204 38.7681 10.1204C38.0127 10.1204 37.4004 10.7328 37.4004 11.4881Z" fill="#C1A479"/>
<path d="M24.6973 7.11431V15.4137C24.6973 16.1689 25.3096 16.7814 26.065 16.7814C26.8204 16.7814 27.4327 16.1689 27.4327 15.4137V7.11431C27.4327 6.35905 26.8204 5.74658 26.065 5.74658C25.3096 5.74658 24.6973 6.35905 24.6973 7.11431Z" fill="#C1A479"/>
<path d="M43.752 7.11431V15.4137C43.752 16.1689 44.3643 16.7814 45.1197 16.7814C45.8751 16.7814 46.4874 16.1689 46.4874 15.4137V7.11431C46.4874 6.35905 45.8751 5.74658 45.1197 5.74658C44.3643 5.74658 43.752 6.35905 43.752 7.11431Z" fill="#C1A479"/>
<path d="M31.0488 56.2593V60.1847C31.0488 60.94 31.6612 61.5524 32.4166 61.5524C33.1719 61.5524 33.7843 60.94 33.7843 60.1847V56.2593C33.7843 55.5041 33.1719 54.8916 32.4166 54.8916C31.6612 54.8916 31.0488 55.5041 31.0488 56.2593Z" fill="#C1A479"/>
<path d="M37.4004 56.2593V60.1847C37.4004 60.94 38.0127 61.5524 38.7681 61.5524C39.5235 61.5524 40.1358 60.94 40.1358 60.1847V56.2593C40.1358 55.5041 39.5235 54.8916 38.7681 54.8916C38.0127 54.8916 37.4004 55.5041 37.4004 56.2593Z" fill="#C1A479"/>
<path d="M24.6973 56.2593V64.5587C24.6973 65.3139 25.3096 65.9264 26.065 65.9264C26.8204 65.9264 27.4327 65.3139 27.4327 64.5587V56.2593C27.4327 55.5041 26.8204 54.8916 26.065 54.8916C25.3096 54.8916 24.6973 55.5041 24.6973 56.2593Z" fill="#C1A479"/>
<path d="M43.752 56.2593V64.5587C43.752 65.3139 44.3643 65.9264 45.1197 65.9264C45.8751 65.9264 46.4874 65.3139 46.4874 64.5587V56.2593C46.4874 55.5041 45.8751 54.8916 45.1197 54.8916C44.3643 54.8916 43.752 55.5041 43.752 56.2593Z" fill="#C1A479"/>
<path d="M59.9396 31.2927H56.0142C55.2588 31.2927 54.6465 31.9052 54.6465 32.6604C54.6465 33.4157 55.2588 34.0282 56.0142 34.0282H59.9396C60.695 34.0282 61.3073 33.4157 61.3073 32.6604C61.3073 31.9052 60.6948 31.2927 59.9396 31.2927Z" fill="#C1A479"/>
<path d="M59.9396 37.6445H56.0142C55.2588 37.6445 54.6465 38.257 54.6465 39.0123C54.6465 39.7675 55.2588 40.38 56.0142 40.38H59.9396C60.695 40.38 61.3073 39.7675 61.3073 39.0123C61.3073 38.257 60.6948 37.6445 59.9396 37.6445Z" fill="#C1A479"/>
<path d="M64.3136 24.9412H56.0142C55.2588 24.9412 54.6465 25.5536 54.6465 26.3089C54.6465 27.0641 55.2588 27.6766 56.0142 27.6766H64.3136C65.069 27.6766 65.6813 27.0641 65.6813 26.3089C65.6813 25.5536 65.069 24.9412 64.3136 24.9412Z" fill="#C1A479"/>
<path d="M64.3136 43.9963H56.0142C55.2588 43.9963 54.6465 44.6088 54.6465 45.3641C54.6465 46.1193 55.2588 46.7318 56.0142 46.7318H64.3136C65.069 46.7318 65.6813 46.1193 65.6813 45.3641C65.6813 44.6088 65.069 43.9963 64.3136 43.9963Z" fill="#C1A479"/>
<path d="M11.2427 34.0282H15.1681C15.9235 34.0282 16.5358 33.4157 16.5358 32.6604C16.5358 31.9052 15.9235 31.2927 15.1681 31.2927H11.2427C10.4873 31.2927 9.875 31.9052 9.875 32.6604C9.875 33.4157 10.4875 34.0282 11.2427 34.0282Z" fill="#C1A479"/>
<path d="M11.2427 40.38H15.1681C15.9235 40.38 16.5358 39.7675 16.5358 39.0123C16.5358 38.257 15.9235 37.6445 15.1681 37.6445H11.2427C10.4873 37.6445 9.875 38.257 9.875 39.0123C9.875 39.7675 10.4875 40.38 11.2427 40.38Z" fill="#C1A479"/>
<path d="M5.50195 26.3089C5.50195 27.0641 6.11428 27.6766 6.86968 27.6766H15.169C15.9244 27.6766 16.5368 27.0641 16.5368 26.3089C16.5368 25.5536 15.9244 24.9412 15.169 24.9412H6.86968C6.11428 24.9412 5.50195 25.5535 5.50195 26.3089Z" fill="#C1A479"/>
<path d="M6.86968 46.7318H15.169C15.9244 46.7318 16.5368 46.1193 16.5368 45.3641C16.5368 44.6088 15.9244 43.9963 15.169 43.9963H6.86968C6.11428 43.9963 5.50195 44.6088 5.50195 45.3641C5.50195 46.1193 6.11428 46.7318 6.86968 46.7318Z" fill="#C1A479"/>
<path d="M28.8404 43.9554H42.3426C43.098 43.9554 43.7103 43.3429 43.7103 42.5877V29.0855C43.7103 28.3302 43.098 27.7178 42.3426 27.7178H28.8404C28.085 27.7178 27.4727 28.3302 27.4727 29.0855V42.5878C27.4727 43.3431 28.085 43.9554 28.8404 43.9554ZM30.2081 30.4532H40.9748V41.2201H30.2081V30.4532Z" fill="#C1A479"/>
</svg>
