<svg width="428" height="109" viewBox="0 0 428 109" fill="none" xmlns="http://www.w3.org/2000/svg">
<path d="M27.1173 49H0.840472V0.595273H6.57989V48.3085H27.1173V49ZM65.2323 0.595273H66.1312V28.2551C66.1312 35.4928 64.7021 40.8173 61.8439 44.2287C58.9857 47.594 55.2517 49.2766 50.6417 49.2766C47.7374 49.2766 45.2711 49.023 43.2427 48.516C41.2143 47.9628 39.3012 46.9716 37.5033 45.5425C33.8153 42.6843 31.9713 36.9219 31.9713 28.2551V0.595273H37.7107V28.186C37.7107 36.5761 38.9785 42.1772 41.5139 44.9893C42.8047 46.3723 44.1416 47.3174 45.5246 47.8245C46.9537 48.3316 48.6594 48.5851 50.6417 48.5851C55.0673 48.5851 58.5939 46.9716 61.2216 43.7446C63.8954 40.4715 65.2323 35.2853 65.2323 28.186V0.595273ZM74.7684 49H73.8695L86.3856 24.2444L72.6939 0.595273H78.5025L90.3962 21.0636L100.769 0.595273H101.598L90.8803 21.8934L106.646 49H100.838L86.8696 25.0051L74.7684 49ZM144.714 0.595273H145.613V28.2551C145.613 35.4928 144.184 40.8173 141.325 44.2287C138.467 47.594 134.733 49.2766 130.123 49.2766C127.219 49.2766 124.753 49.023 122.724 48.516C120.696 47.9628 118.783 46.9716 116.985 45.5425C113.297 42.6843 111.453 36.9219 111.453 28.2551V0.595273H117.192V28.186C117.192 36.5761 118.46 42.1772 120.995 44.9893C122.286 46.3723 123.623 47.3174 125.006 47.8245C126.435 48.3316 128.141 48.5851 130.123 48.5851C134.549 48.5851 138.075 46.9716 140.703 43.7446C143.377 40.4715 144.714 35.2853 144.714 28.186V0.595273ZM154.266 1.14847C159.614 0.779673 164.339 0.595273 168.442 0.595273C179.828 0.595273 185.522 4.3985 185.522 12.005C185.522 15.2319 184.738 18.1132 183.171 20.6487C181.603 23.1841 178.906 24.8668 175.08 25.6966L188.91 49H182.479L168.926 26.1115H160.006V49H154.266V1.14847ZM168.442 1.28677C165.768 1.28677 162.956 1.44812 160.006 1.77082V25.42H170.24C176.74 25.1434 179.99 20.7178 179.99 12.1433C179.99 8.63968 179.022 5.96589 177.086 4.1219C175.149 2.23181 172.268 1.28677 168.442 1.28677ZM194.446 1.28677V0.595273H206.754V1.28677H203.366V48.3085H206.754V49H194.446V48.3085H197.627V1.28677H194.446ZM219.572 49.2766C218.973 49.2766 218.443 49.0691 217.982 48.6543C217.567 48.1933 217.359 47.6631 217.359 47.0638C217.359 46.4184 217.567 45.8883 217.982 45.4734C218.443 45.0585 218.973 44.851 219.572 44.851C220.171 44.851 220.678 45.0815 221.093 45.5425C221.554 45.9574 221.785 46.4645 221.785 47.0638C221.785 47.6631 221.554 48.1933 221.093 48.6543C220.678 49.0691 220.171 49.2766 219.572 49.2766ZM217.982 20.3721C217.567 19.9111 217.359 19.3809 217.359 18.7816C217.359 18.1823 217.567 17.6752 217.982 17.2603C218.443 16.7993 218.973 16.5688 219.572 16.5688C220.171 16.5688 220.678 16.7993 221.093 17.2603C221.554 17.6752 221.785 18.1823 221.785 18.7816C221.785 19.3809 221.554 19.9111 221.093 20.3721C220.678 20.787 220.171 20.9944 219.572 20.9944C218.973 20.9944 218.443 20.787 217.982 20.3721Z" fill="white"/>
<path d="M0.45 108V72.5H23.75V75.6H3.95V88.65H20.65V91.55H3.95V108H0.45ZM44.3434 108.25C41.5434 108.25 39.1767 107.75 37.2434 106.75C35.31 105.75 33.7767 104.417 32.6434 102.75C31.51 101.05 30.6767 99.1333 30.1434 97C29.6434 94.8667 29.3934 92.6667 29.3934 90.4V72.5H32.8434V90.4C32.8434 92.2333 33.0267 94.0333 33.3934 95.8C33.7934 97.5667 34.4267 99.15 35.2934 100.55C36.16 101.95 37.3267 103.067 38.7934 103.9C40.26 104.7 42.0934 105.1 44.2934 105.1C46.56 105.1 48.4267 104.683 49.8934 103.85C51.3934 102.983 52.56 101.85 53.3934 100.45C54.26 99.05 54.8767 97.4833 55.2434 95.75C55.61 93.9833 55.7934 92.2 55.7934 90.4V72.5H59.2934V90.4C59.2934 92.7667 59.0267 95.0333 58.4934 97.2C57.96 99.3667 57.0934 101.267 55.8934 102.9C54.7267 104.533 53.1934 105.833 51.2934 106.8C49.3934 107.767 47.0767 108.25 44.3434 108.25ZM92.8375 75.6H80.1875V108H76.6875V75.6H64.0375V72.5H92.8375V75.6ZM112.605 108.25C109.805 108.25 107.438 107.75 105.505 106.75C103.572 105.75 102.038 104.417 100.905 102.75C99.7717 101.05 98.9384 99.1333 98.4051 97C97.9051 94.8667 97.6551 92.6667 97.6551 90.4V72.5H101.105V90.4C101.105 92.2333 101.288 94.0333 101.655 95.8C102.055 97.5667 102.688 99.15 103.555 100.55C104.422 101.95 105.588 103.067 107.055 103.9C108.522 104.7 110.355 105.1 112.555 105.1C114.822 105.1 116.688 104.683 118.155 103.85C119.655 102.983 120.822 101.85 121.655 100.45C122.522 99.05 123.138 97.4833 123.505 95.75C123.872 93.9833 124.055 92.2 124.055 90.4V72.5H127.555V90.4C127.555 92.7667 127.288 95.0333 126.755 97.2C126.222 99.3667 125.355 101.267 124.155 102.9C122.988 104.533 121.455 105.833 119.555 106.8C117.655 107.767 115.338 108.25 112.605 108.25ZM135.899 108V72.5H150.899C152.433 72.5 153.833 72.8167 155.099 73.45C156.366 74.0833 157.466 74.95 158.399 76.05C159.366 77.1167 160.099 78.3167 160.599 79.65C161.133 80.95 161.399 82.2833 161.399 83.65C161.399 85.35 161.066 86.95 160.399 88.45C159.766 89.95 158.849 91.2167 157.649 92.25C156.483 93.2833 155.099 93.9667 153.499 94.3L162.199 108H158.249L149.899 94.9H139.399V108H135.899ZM139.399 91.8H150.999C152.399 91.8 153.616 91.4167 154.649 90.65C155.683 89.8833 156.483 88.8833 157.049 87.65C157.616 86.3833 157.899 85.05 157.899 83.65C157.899 82.2167 157.566 80.9 156.899 79.7C156.266 78.4667 155.399 77.4833 154.299 76.75C153.233 75.9833 152.033 75.6 150.699 75.6H139.399V91.8ZM192.415 104.9V108H168.565V72.5H191.965V75.6H172.065V88.4H189.415V91.35H172.065V104.9H192.415ZM226.028 108.25C223.661 108.25 221.461 107.75 219.428 106.75C217.395 105.717 215.628 104.333 214.128 102.6C212.628 100.867 211.461 98.9333 210.628 96.8C209.828 94.6667 209.428 92.4667 209.428 90.2C209.428 87.8 209.828 85.5333 210.628 83.4C211.461 81.2333 212.611 79.3167 214.078 77.65C215.545 75.9833 217.278 74.6667 219.278 73.7C221.278 72.7333 223.461 72.25 225.828 72.25C229.328 72.25 232.178 72.9667 234.378 74.4C236.578 75.8333 238.245 77.7 239.378 80L236.678 81.8C235.545 79.6 234.028 77.9833 232.128 76.95C230.228 75.9167 228.111 75.4 225.778 75.4C223.811 75.4 222.028 75.8167 220.428 76.65C218.861 77.4833 217.511 78.6 216.378 80C215.245 81.4 214.378 82.9833 213.778 84.75C213.211 86.5167 212.928 88.35 212.928 90.25C212.928 92.25 213.261 94.15 213.928 95.95C214.595 97.7167 215.545 99.3 216.778 100.7C218.011 102.067 219.428 103.15 221.028 103.95C222.661 104.717 224.411 105.1 226.278 105.1C228.445 105.1 230.495 104.567 232.428 103.5C234.361 102.4 236.211 100.717 237.978 98.45V102.15C234.611 106.217 230.628 108.25 226.028 108.25ZM237.428 93.25H229.528V90.55H240.378V108H237.428V93.25ZM247.569 108V72.5H262.569C264.102 72.5 265.502 72.8167 266.769 73.45C268.036 74.0833 269.136 74.95 270.069 76.05C271.036 77.1167 271.769 78.3167 272.269 79.65C272.802 80.95 273.069 82.2833 273.069 83.65C273.069 85.35 272.736 86.95 272.069 88.45C271.436 89.95 270.519 91.2167 269.319 92.25C268.152 93.2833 266.769 93.9667 265.169 94.3L273.869 108H269.919L261.569 94.9H251.069V108H247.569ZM251.069 91.8H262.669C264.069 91.8 265.286 91.4167 266.319 90.65C267.352 89.8833 268.152 88.8833 268.719 87.65C269.286 86.3833 269.569 85.05 269.569 83.65C269.569 82.2167 269.236 80.9 268.569 79.7C267.936 78.4667 267.069 77.4833 265.969 76.75C264.902 75.9833 263.702 75.6 262.369 75.6H251.069V91.8ZM294.535 108.25C292.035 108.25 289.768 107.75 287.735 106.75C285.702 105.75 283.952 104.4 282.485 102.7C281.018 100.967 279.885 99.0333 279.085 96.9C278.285 94.7333 277.885 92.5167 277.885 90.25C277.885 87.8833 278.302 85.6333 279.135 83.5C279.968 81.3333 281.135 79.4167 282.635 77.75C284.168 76.05 285.952 74.7167 287.985 73.75C290.018 72.75 292.218 72.25 294.585 72.25C297.085 72.25 299.352 72.7667 301.385 73.8C303.418 74.8333 305.152 76.2167 306.585 77.95C308.052 79.6833 309.185 81.6167 309.985 83.75C310.785 85.8833 311.185 88.0667 311.185 90.3C311.185 92.6667 310.768 94.9333 309.935 97.1C309.102 99.2333 307.935 101.15 306.435 102.85C304.935 104.517 303.168 105.833 301.135 106.8C299.102 107.767 296.902 108.25 294.535 108.25ZM281.385 90.25C281.385 92.1833 281.702 94.05 282.335 95.85C282.968 97.6167 283.868 99.2 285.035 100.6C286.202 101.967 287.585 103.067 289.185 103.9C290.818 104.7 292.602 105.1 294.535 105.1C296.568 105.1 298.385 104.683 299.985 103.85C301.618 102.983 303.002 101.85 304.135 100.45C305.302 99.0167 306.185 97.4167 306.785 95.65C307.385 93.8833 307.685 92.0833 307.685 90.25C307.685 88.3167 307.368 86.4667 306.735 84.7C306.102 82.9333 305.185 81.35 303.985 79.95C302.818 78.55 301.435 77.45 299.835 76.65C298.235 75.85 296.468 75.45 294.535 75.45C292.535 75.45 290.718 75.8667 289.085 76.7C287.485 77.5333 286.102 78.6667 284.935 80.1C283.802 81.5 282.918 83.0833 282.285 84.85C281.685 86.6167 281.385 88.4167 281.385 90.25ZM329.767 72.75H333.067L338.067 85.35L343.117 72.75H346.467L340.267 87.9L347.067 103.95L359.917 72.5H363.717L348.667 108H345.567L338.117 90.45L330.617 108H327.567L312.567 72.5H316.317L329.217 103.95L335.967 87.9L329.767 72.75ZM393.912 75.6H381.262V108H377.762V75.6H365.112V72.5H393.912V75.6ZM427.229 72.5V108H423.779V91.4H402.729V108H399.229V72.5H402.729V88.3H423.779V72.5H427.229Z" fill="url(#paint0_linear_212_6258)"/>
<defs>
<linearGradient id="paint0_linear_212_6258" x1="50.5" y1="44.0625" x2="414.572" y2="128.049" gradientUnits="userSpaceOnUse">
<stop stop-color="#D68308"/>
<stop offset="0.291667" stop-color="#EDB45F"/>
<stop offset="0.541667" stop-color="#C78017"/>
<stop offset="0.739583" stop-color="#C58D39"/>
<stop offset="1" stop-color="#814E03"/>
</linearGradient>
</defs>
</svg>
