<svg width="60" height="63" viewBox="0 0 60 63" fill="none" xmlns="http://www.w3.org/2000/svg">
<g clip-path="url(#clip0_267_9742)">
<path d="M47.4316 34.7841L49.7489 41.9615L57.3046 41.9473C58.0522 41.9473 58.6595 42.5528 58.6595 43.3022C58.6595 43.7532 58.4393 44.1528 58.1001 44.3996L58.1019 44.4031L51.9828 48.83L54.3303 56.0092C54.5611 56.7231 54.1722 57.4884 53.4584 57.7192C52.9931 57.8702 52.5048 57.7565 52.1586 57.4618L46.1389 53.0704L40.0358 57.5221C39.432 57.9625 38.585 57.8293 38.1446 57.2256C37.8783 56.8616 37.8232 56.4088 37.9511 56.011L37.9475 56.0092L40.295 48.83L34.1759 44.4031C33.5686 43.9628 33.4336 43.114 33.874 42.5067C34.1599 42.1125 34.6198 41.9171 35.0726 41.9491L42.5289 41.9633L44.8479 34.777C45.077 34.0632 45.8388 33.6725 46.5526 33.8998C46.9877 34.0401 47.3038 34.3792 47.4316 34.7859V34.7841ZM29.6585 18.3942C31.539 18.3942 33.2401 17.6325 34.4707 16.4019C35.7012 15.1713 36.463 13.4684 36.463 11.5897C36.463 9.70922 35.7012 8.00808 34.4707 6.77751C33.2401 5.54694 31.5372 4.78516 29.6585 4.78516C27.7798 4.78516 26.0769 5.54694 24.8463 6.77751C23.6157 8.00808 22.8539 9.71099 22.8539 11.5897C22.8539 13.4684 23.6157 15.1713 24.8463 16.4019C26.0769 17.6325 27.7798 18.3942 29.6585 18.3942ZM36.3938 18.3232C36.0599 18.657 35.7012 18.966 35.3212 19.2466C36.5039 19.6124 37.6403 20.09 38.7128 20.6672C41.5078 22.1694 43.8891 24.3482 45.6328 26.9834C46.0466 27.6084 45.8761 28.4501 45.251 28.8639C44.626 29.2776 43.7843 29.1071 43.3705 28.4821C41.8718 26.2198 39.828 24.35 37.4272 23.059C35.1188 21.8178 32.473 21.1129 29.6567 21.1129C26.8422 21.1129 24.1964 21.8178 21.8879 23.059C19.4872 24.35 17.4433 26.2198 15.9446 28.4821C15.5309 29.1071 14.6892 29.2776 14.0641 28.8639C13.4391 28.4501 13.2686 27.6084 13.6824 26.9834C15.4279 24.3482 17.8074 22.1712 20.6023 20.6672C21.6766 20.09 22.8113 19.6124 23.9939 19.2466C23.6139 18.9642 23.2552 18.6553 22.9214 18.3232C21.199 16.599 20.1318 14.2178 20.1318 11.5879C20.1318 8.95809 21.1972 6.57686 22.9214 4.85264C24.6456 3.13019 27.0269 2.06299 29.6567 2.06299C32.2865 2.06299 34.6678 3.12842 36.392 4.85264C38.1144 6.57686 39.1816 8.95809 39.1816 11.5879C39.1816 14.2178 38.1162 16.599 36.392 18.3232H36.3938ZM14.4726 34.7841L16.7899 41.9615L24.3455 41.9473C25.0931 41.9473 25.7004 42.5528 25.7004 43.3022C25.7004 43.7532 25.4802 44.1528 25.1411 44.3996L25.1428 44.4031L19.0237 48.83L21.3712 56.0092C21.6021 56.7231 21.2132 57.4884 20.4993 57.7192C20.0341 57.8702 19.5458 57.7565 19.1995 57.4618L13.1781 53.0704L7.07493 57.5221C6.47119 57.9625 5.62417 57.8293 5.18379 57.2256C4.91744 56.8616 4.86239 56.4088 4.99024 56.011L4.98669 56.0092L7.33418 48.83L1.21507 44.4031C0.607775 43.9628 0.472821 43.114 0.913198 42.5067C1.19909 42.1125 1.659 41.9171 2.11181 41.9491L9.56626 41.9633L11.8871 34.777C12.1162 34.0632 12.878 33.6725 13.5918 33.8998C14.0269 34.0401 14.3429 34.3792 14.4708 34.7859L14.4726 34.7841ZM14.5116 43.7319L13.1781 39.6016L11.8445 43.7319C11.6687 44.2771 11.1573 44.673 10.5553 44.673L6.21193 44.6642L9.72962 47.2088C10.1931 47.5444 10.4097 48.1535 10.2233 48.727L8.87195 52.8573L12.3612 50.3127C12.8247 49.9611 13.4817 49.938 13.9754 50.2967L17.4842 52.8555L16.1488 48.7732C15.9446 48.2174 16.1222 47.571 16.6265 47.2052L20.1442 44.6606L15.8647 44.6695C15.2681 44.6979 14.7016 44.325 14.5099 43.7284L14.5116 43.7319ZM47.4707 43.7319L46.1371 39.6016L44.8036 43.7319C44.6278 44.2771 44.1163 44.673 43.5126 44.673L39.1692 44.6642L42.6869 47.2088C43.1504 47.5444 43.367 48.1535 43.1805 48.727L41.8292 52.8573L45.3167 50.3127C45.7802 49.9611 46.4372 49.938 46.9309 50.2967L50.4397 52.8555L49.1043 48.7732C48.9001 48.2174 49.0777 47.571 49.582 47.2052L53.0997 44.6606L48.8202 44.6695C48.2236 44.6979 47.6571 44.325 47.4671 43.7284L47.4707 43.7319Z" fill="#DAB988" fill-opacity="0.88"/>
</g>
<defs>
<clipPath id="clip0_267_9742">
<rect width="59.1899" height="61.6821" fill="white" transform="translate(0.0625 0.328125)"/>
</clipPath>
</defs>
</svg>
