<svg width="1334" height="800" viewBox="0 0 1334 800" fill="none" xmlns="http://www.w3.org/2000/svg">
<path d="M1208.04 800H1206.54L1216.45 780.593L1256.37 702.41L1113.63 708.334L1189.27 800H1187.54L1112.4 708.951L1068.23 800H1066.75L1111.17 708.437L983.913 713.717L1033.28 777.288L1050.92 800H1049.23L1032.09 777.925L982.739 714.38L943.153 800H941.684L981.529 713.816L867.397 718.555L927.105 800H925.452L866.265 719.264L848.061 760.468L830.595 800H829.136L846.892 759.81L865.077 718.651L762.165 722.92L815.648 800H814.025L761.067 723.679L728.764 800H727.315L759.9 723.015L666.647 726.885L714.787 800H713.189L665.583 727.693L636.199 800H634.759L664.433 726.977L620.96 728.78L579.561 730.497L623.081 800H621.508L578.525 731.357L551.687 800H550.256L577.395 730.588L499.837 733.807L538.099 797.928L539.335 800H537.783L535.584 796.316L498.828 734.716L488.703 761.581L474.225 800H472.799L487.6 760.727L497.711 733.895L426.58 736.847L462.559 800H461.024L425.593 737.808L418.437 757.475L402.964 800H401.544L417.181 757.025L424.492 736.933L359.033 739.649L391.916 800H390.397L358.067 740.663L337.188 800H335.773L356.98 739.735L326.667 740.993L296.555 742.244L301.343 751.419L326.699 800H325.195L300.277 752.258L295.607 743.308L284.755 775.155L276.288 800H274.879L283.724 774.044L294.532 742.328L238.593 744.649L266.308 800H264.817L237.663 745.768L219.74 800H218.335L236.6 744.732L184.679 746.885L210.223 800H208.743L183.761 748.059L168.58 795.371L167.095 800H165.695L168.009 792.785L182.711 746.967L147.624 748.422L134.397 748.972L153.388 790.023L158.003 800H156.533L152.683 791.674L133.495 750.197L128.733 765.463L117.961 800H116.564L127.54 764.81L132.455 749.053L87.3973 750.922L109.258 800H107.8L86.5073 752.203L71.9995 800H70.6057L71.2088 798.012L85.4781 751.003L76.6364 751.369L43.3667 752.751L50.3355 768.98L63.6563 800H62.2047L48.9932 769.233L42.4875 754.084L39.7224 763.436L28.9115 800H27.5208L38.9833 761.233L41.4683 752.829L2.03177 754.465L19.9016 797.591L20.9 800H19.4573L1.16302 755.855L0 759.889V755.073L0.153125 754.544L0 754.551V753.216L0.0682292 753.213L0 753.048V749.563L0.9375 751.824L17.0355 695.986L0 697.439V696.1L16.9672 694.655L0 655.143V651.763L17.8208 693.263L34.2781 636.177L0 640.588V639.243L34.2255 634.839L27.6797 620.144L11.2948 583.363L0 623.507V618.583L10.2245 582.24L1.46145 583.748L0 583.999V582.647L2.02344 582.297L10.1943 580.892L0 558.005V554.729L11.0109 579.447L18.8511 551.583L27.2271 521.812L7.94688 525.959L0 527.668V526.304L27.2136 520.451L4.6526 471.681L2.01251 481.288L0 488.611V483.579L0.931771 480.189L3.54479 470.68L0 471.595V470.217L3.55104 469.301L0 461.625V458.445L4.33281 467.812L20.3104 409.668L0 415.775V414.383L20.3339 408.268L0 365.991V362.913L21.1021 406.788L29.5027 376.219L37.4317 347.363L30.5479 349.725L0 360.209V358.799L30.1448 348.453L37.4719 345.94L14.6989 300.455L0 355.173V350.031L13.5255 299.681L0 304.896V303.467L13.5855 298.229L2.49219 276.075L0 271.097V268.12L3.21823 274.547L14.3208 296.721L30.4093 236.827L21.7287 240.539L0 249.831V248.381L22.3021 238.844L30.4849 235.344L15.5901 206.805L8.08125 192.42L0 223.171V217.923L6.86667 191.792L0 195.016V193.543L6.96093 190.273L0 176.937V174.053L7.66719 188.744L23.5188 128.419L10.4109 135.121L0 140.445V138.948L10.287 133.688L23.6292 126.864L8.05937 98.2866L1.58803 86.4106L0 92.5826V87.2293L0.332812 85.9373L0 86.1213V84.5973L0.461459 84.3413L0 83.4946V80.708L1.13958 82.8L16.7584 22.0786L0 32.0386V30.488L16.9031 20.4426L5.25729 -4.17233e-05H6.79323L17.5713 18.9186L22.4375 -4.17233e-05H23.8151L18.8547 19.2813L25.0656 15.5906L51.2984 -4.17233e-05H53.9088L24.9213 17.228L18.7104 20.9186L38.4631 55.5907L41.3328 60.628L57.264 -4.17233e-05H58.6427L42.6021 61.0413L83.3828 38.492L75.1661 24.7213L60.414 -4.17233e-05H61.9688L75.636 22.9053L84.0745 37.0453L94.0255 -4.17233e-05H95.4068L85.3599 37.3987L128.916 13.316L120.579 -4.17233e-05H122.153L129.614 11.916L132.889 -4.17233e-05H134.272L130.917 12.2093L152.996 -4.17233e-05H155.749L130.794 13.8L157.952 57.1746L174.039 -4.17233e-05H175.424L159.243 57.516L191.535 41.0026L207.936 32.6146L198.311 17.9973L186.461 -4.17233e-05H188.059L198.668 16.116L208.663 31.2946L217.684 -4.17233e-05H219.072L209.969 31.5759L262.271 4.83062L258.919 -4.17233e-05H260.541L263.008 3.55465L264.06 -4.17233e-05H265.449L264.332 3.77594L271.719 -4.17233e-05H274.647L264.236 5.32398L297.333 53.024L313.428 -4.17233e-05H314.823L298.647 53.2946L343.111 32.4146L357.72 25.552L338.988 -4.17233e-05H340.643L358.495 24.352L366.089 -4.17233e-05H367.487L359.825 24.564L412.133 -4.17233e-05H415.268L391.387 11.216L359.755 26.0706L397.499 77.56L422.384 -4.17233e-05H423.785L398.817 77.8199L461.773 50.8946L466.044 49.0679L427.936 -4.17233e-05H429.625L466.86 47.9453L482.704 -4.17233e-05H484.109L468.199 48.1479L476.316 44.6759L541.269 16.896L527.325 -4.17233e-05H529.053L542.105 15.8146L547.493 -4.17233e-05H548.903L543.465 15.9573L580.779 -4.17233e-05H584.171L571.087 5.59462L543.432 17.4226L573.911 54.3533L590.901 74.9426L617.272 -4.17233e-05H618.685L592.248 75.1346L620.413 64.2759L676.604 42.6119L639.108 -4.17233e-05H640.884L677.932 42.1L678.865 41.7399L678.5 42.7453L678.871 43.1666L678.869 43.1679L734.723 106.636L735.64 106.321L735.283 107.272L735.675 107.719L794.697 174.791V174.789L795.137 175.291L796.04 175.019L795.689 175.916L859.093 247.967L859.535 248.469L860.421 248.24L860.077 249.085L928.324 326.637L929.196 326.449L928.859 327.247L929.332 327.784L1001.97 410.324L1002.83 410.176L1002.49 410.923L1003 411.499L1081 500.133L1081.84 500.024L1081.52 500.725L1082.06 501.34L1165.59 596.261L1166.03 596.76L1166.87 596.689L1166.55 597.345L1257.34 700.52L1257.62 700.839L1257.78 701.017L1258.6 700.984L1258.29 701.597L1258.91 702.305L1333.33 786.879V788.896L1257.63 702.875L1217.27 781.914L1208.04 800ZM18.0688 697.219L1.9474 753.135L41.3765 751.498L18.0688 697.219ZM60.3839 693.559L44.1973 748.302L43.2755 751.419L77.9271 749.981L85.3803 749.672L60.3839 693.559ZM59.3407 692.383L18.9219 695.827L42.2563 750.164L43.136 747.188L59.3407 692.383ZM105.49 689.661L91.6401 735.291L87.2989 749.593L132.349 747.721L109.317 697.933L105.49 689.661ZM104.436 688.54L61.2479 692.22L86.2697 748.392L90.4109 734.749L104.436 688.54ZM153.673 685.503L134.292 747.641L148.92 747.034L182.597 745.637L154.149 686.489L153.673 685.503ZM152.609 684.437L106.364 688.376L111.243 698.921L133.252 746.496L152.609 684.437ZM205.261 681.053L184.564 745.556L236.477 743.402L205.261 681.053ZM204.185 680.043L154.561 684.271L183.513 744.464L204.185 680.043ZM260.624 676.284L238.472 743.319L294.4 740.997L260.624 676.284ZM259.535 675.328L239.859 677.004L206.161 679.875L237.409 742.283L259.535 675.328ZM320.193 671.155L296.423 740.914L326.524 739.665L356.837 738.407L320.193 671.155ZM319.093 670.253L303.409 671.589L261.54 675.157L264.375 680.588L295.348 739.932L319.093 670.253ZM384.471 665.627L358.891 738.321L424.337 735.605L421.379 730.412L384.471 665.627ZM383.355 664.779L338.267 668.62L321.127 670.08L357.804 737.393L383.355 664.779ZM454.033 659.648L426.427 735.519L497.545 732.567L454.033 659.648ZM452.901 658.855L403.591 663.055L385.421 664.603L423.483 731.41L425.325 734.643L452.901 658.855ZM529.561 653.161L509.836 705.501L499.671 732.479L577.213 729.261L546.241 679.8L529.561 653.161ZM528.415 652.42L520.159 653.124L455.004 658.675L498.553 731.657L508.708 704.716L528.415 652.42ZM611.86 646.1L579.38 729.171L664.237 725.649L611.86 646.1ZM610.696 645.411L530.557 652.237L546.9 678.337L578.249 728.403L610.696 645.411ZM701.877 638.379L666.451 725.557L712.028 723.665L759.685 721.688L724.375 670.802L701.877 638.379ZM700.696 637.743L612.881 645.224L665.301 724.841L700.696 637.743ZM800.757 629.903L761.949 721.595L864.843 717.325L800.757 629.903ZM799.556 629.32L708.625 637.068L702.928 637.553L725.373 669.9L760.783 720.928L799.556 629.32ZM909.875 620.557L867.164 717.228L922.811 714.919L981.273 712.493L937.231 655.783L909.875 620.557ZM908.651 620.027L801.841 629.125L865.976 716.615L908.651 620.027ZM1030.91 610.199L983.657 712.395L1045.61 709.822L1110.89 707.114L1030.91 610.199ZM1029.66 609.717L910.995 619.827L937.88 654.445L982.447 711.829L1029.66 609.717ZM1165.92 598.647L1113.34 707.012L1182.73 704.132L1256.06 701.089L1165.92 598.647ZM1164.64 598.219L1092.66 604.351L1032.07 609.512L1112.11 706.498L1164.64 598.219ZM35.3344 637.327L18.8536 694.493L59.2661 691.051L56.286 684.359L35.3344 637.327ZM78.6751 631.695L76.4677 639.16L61.174 690.888L104.356 687.209L78.6751 631.695ZM77.6073 630.601L55.2323 633.48L36.174 635.933L58.6833 686.463L60.1307 689.71L75.1021 639.076L77.6073 630.601ZM124.907 625.692L106.284 687.045L152.521 683.105L149.809 677.467L124.907 625.692ZM123.829 624.653L79.5245 630.355L105.23 685.924L123.829 624.653ZM174.331 619.277L154.473 682.94L204.089 678.714L189.548 649.672L174.331 619.277ZM173.239 618.293L125.768 624.404L148.547 671.767L153.408 681.873L173.239 618.293ZM227.285 612.409L207.056 675.459L206.065 678.545L239.261 675.716L259.431 673.997L257.537 670.371L227.285 612.409ZM226.183 611.481L183.388 616.988L175.203 618.041L190.433 648.461L204.991 677.534L206.596 672.529L226.183 611.481ZM284.168 605.037L261.436 673.827L301.447 670.419L318.979 668.924L284.168 605.037ZM283.051 604.164L247.619 608.723L228.173 611.225L258.531 669.391L260.347 672.871L283.051 604.164ZM345.431 597.099L321.012 668.751L332.271 667.792L383.231 663.451L360.963 624.361L345.431 597.099ZM344.3 596.28L316.983 599.796L285.071 603.904L319.912 667.849L344.3 596.28ZM411.597 588.532L385.297 663.275L404.445 661.644L452.768 657.527L440.177 636.428L411.597 588.532ZM410.452 587.768L392.483 590.08L346.348 596.017L362.017 623.521L384.183 662.427L410.452 587.768ZM483.285 579.255L475.407 600.907L454.871 657.348L520.423 651.763L528.268 651.095L483.285 579.255ZM482.124 578.544L412.535 587.5L449.048 648.692L453.739 656.553L474.583 599.271L482.124 578.544ZM561.213 569.175L530.409 650.912L569.603 647.573L610.535 644.087L561.213 569.175ZM560.035 568.519L484.243 578.272L529.263 650.171L560.035 568.519ZM646.232 558.183L612.72 643.9L700.519 636.42L646.232 558.183ZM645.036 557.579L625.511 560.092L562.195 568.241L611.555 643.212L645.036 557.579ZM739.359 546.148L718.899 596.493L702.751 636.229L709.216 635.679L799.36 627.999L739.359 546.148ZM738.141 545.599L694.307 551.239L647.24 557.295L701.569 635.593L717.719 595.856L738.141 545.599ZM52.9745 576.139L36.1213 634.595L55.264 632.132L77.55 629.264L63.8984 599.752L52.9745 576.139ZM51.8932 575.073L12.1115 581.916L28.6604 619.067L35.0656 633.445L51.8932 575.073ZM97.3745 568.448L91.8896 587L79.4667 629.017L101.188 626.223L123.765 623.316L97.3745 568.448ZM96.2828 567.44L74.7844 571.137L53.7995 574.745L64.7265 598.369L78.3989 627.923L95.0927 571.465L96.2828 567.44ZM841.808 532.915L824.773 573.161L801.645 627.803L908.436 618.705L846.617 539.107L841.808 532.915ZM840.571 532.417L762.293 542.491L740.396 545.308L800.445 627.221L823.569 572.585L840.571 532.417ZM144.773 560.244L137.219 585.129L125.704 623.067L148.972 620.072L173.168 616.957L159.255 589.167L144.773 560.244ZM143.668 559.291L120.643 563.251L98.2104 567.108L124.625 622.028L136.059 584.364L143.668 559.291ZM955.057 518.291L910.781 618.507L968.567 613.584L1029.42 608.399L974.067 541.324L955.057 518.291ZM953.797 517.845L896.892 525.169L842.88 532.12L851.964 543.816L909.557 617.975L953.797 517.845ZM195.48 551.469L176.465 612.432L175.132 616.705L226.104 610.145L206.545 572.671L195.48 551.469ZM194.361 550.572L165.576 555.523L145.619 558.955L160.112 587.903L174.041 615.721L191.369 560.165L194.361 550.572ZM249.857 542.065L237.749 579.797L228.095 609.889L247.588 607.381L282.965 602.829L249.857 542.065ZM248.727 541.223L196.339 550.232L207.101 570.855L226.992 608.961L236.647 578.871L248.727 541.223ZM1080.91 502.048L1054.75 558.629L1031.83 608.193L1092.23 603.048L1164.38 596.901L1080.91 502.048ZM1079.62 501.655L956.168 517.541L974.997 540.356L1030.59 607.712L1053.48 558.187L1079.62 501.655ZM308.319 531.956L284.984 602.569L316.86 598.468L344.205 594.948L308.319 531.956ZM307.173 531.169L250.729 540.877L283.867 601.696L307.173 531.169ZM371.34 521.067L346.253 594.684L392.413 588.744L410.347 586.436L371.34 521.067ZM370.18 520.335L309.205 530.82L345.123 593.865L370.18 520.335ZM439.479 509.295L412.429 586.169L482.008 577.215L464.857 549.824L439.479 509.295ZM438.304 508.616L372.244 519.979L411.284 585.404L438.304 508.616ZM28.3213 522.847L19.9521 552.592L12.0813 580.568L51.8584 573.727L28.3213 522.847ZM513.385 496.533L498.671 536.969L484.128 576.941L559.905 567.191L513.385 496.533ZM512.192 495.909L454.052 505.908L440.401 508.256L466.263 549.557L482.965 576.231L497.497 536.296L512.192 495.909ZM71.0005 513.612L53.764 573.399L96.2417 566.093L94.7891 563.073L71.0005 513.612ZM69.8953 512.635L29.124 521.404L52.6828 572.333L69.8953 512.635ZM593.82 482.648L591.136 489.771L562.065 566.912L602.528 561.705L644.893 556.253L613.616 511.177L593.82 482.648ZM592.611 482.079L514.329 495.543L560.888 566.256L589.767 489.623L592.611 482.079ZM116.498 503.773L98.1688 565.761L118.937 562.191L143.621 557.945L130.303 531.344L116.498 503.773ZM115.38 502.852L96.3625 506.941L71.812 512.223L93.776 557.889L97.0771 564.753L97.6885 562.687L115.38 502.852ZM165.103 493.267L151.851 536.927L145.572 557.609L169.424 553.507L194.309 549.228L171.828 506.153L165.103 493.267ZM163.971 492.4L144.621 496.563L117.32 502.435L131.136 530.029L144.468 556.656L150.955 535.285L163.971 492.4ZM681.692 467.485L661.94 518.007L647.097 555.969L691.459 550.261L737.984 544.273L728.549 531.404L681.692 467.485ZM680.461 466.969L636.699 474.496L594.788 481.704L614.857 510.627L645.901 555.367L660.56 517.873L680.461 466.969ZM217.141 482.02L204.14 523.701L196.285 548.888L248.665 539.879L239.977 523.933L217.141 482.02ZM215.996 481.211L177.397 489.513L165.935 491.979L173.263 506.021L195.168 547.991L203.089 522.591L215.996 481.211ZM778.081 450.857L740.237 543.984L762.356 541.137L840.395 531.095L820.895 505.985L778.081 450.857ZM776.831 450.396L710.945 461.727L682.687 466.587L729.596 530.577L739.021 543.433L776.831 450.396ZM272.995 469.955L250.669 539.535L307.105 529.828L272.995 469.955ZM271.836 469.201L258.659 472.036L217.985 480.783L240.139 521.44L249.539 538.692L271.836 469.201ZM884.292 432.544L842.704 530.797L899.881 523.44L953.601 516.525L920.176 476.025L884.292 432.544ZM883.016 432.135L829.797 441.287L779.108 450.005L824.155 508.008L841.467 530.3L883.016 432.135ZM333.097 456.975L309.137 529.479L370.103 518.993L341.399 470.887L333.097 456.975ZM331.921 456.276L273.853 468.768L307.993 528.691L331.921 456.276ZM45.7125 461.033L29.1099 520.044L69.8765 511.273L45.7125 461.033ZM44.5932 460.089L5.43489 470.193L28.0161 519.009L44.5932 460.089ZM397.951 442.973L372.168 518.639L438.217 507.28L426.207 488.099L397.951 442.973ZM396.763 442.332L373.82 447.265L333.971 455.836L342.176 469.588L371.008 517.905L396.763 442.332ZM1001.9 412.267L993.033 432.34L955.973 516.22L1016.02 508.495L1079.4 500.339L1001.9 412.267ZM1000.6 411.911L941.485 422.079L885.352 431.732L921.279 475.265L954.712 515.775L992.219 430.884L1000.6 411.911ZM89.4251 449.704L71.7937 510.861L96.1547 505.623L115.356 501.492L109.275 489.344L89.4251 449.704ZM88.2932 448.816L46.5021 459.597L70.688 509.884L88.2932 448.816ZM468.145 427.825L440.315 506.919L455.615 504.288L512.095 494.573L468.145 427.825ZM466.939 427.237L432.3 434.688L398.843 441.884L426.813 486.556L439.14 506.24L466.939 427.237ZM136.057 437.617L117.296 501.075L127.959 498.781L140.089 496.172L163.943 491.044L136.057 437.617ZM134.913 436.788L121.984 440.124L90.224 448.317L109.796 487.408L116.177 500.153L134.913 436.788ZM544.368 411.38L514.232 494.207L552.445 487.633L592.5 480.745L544.368 411.38ZM543.143 410.847L505.412 418.963L469.055 426.783L513.039 493.583L543.143 410.847ZM185.912 424.704L165.905 490.621L178.728 487.863L215.961 479.853L192.331 436.483L185.912 424.704ZM184.753 423.931L136.865 436.285L164.775 489.756L184.753 423.931ZM627.429 393.465L601.991 460.967L594.677 480.371L661.055 468.955L680.337 465.639L651.784 426.688L627.429 393.465ZM626.184 392.987L545.299 410.384L593.468 479.801L600.176 462.003L626.184 392.987ZM239.333 410.869L217.951 479.425L258.104 470.789L271.793 467.845L239.333 410.869ZM216.805 478.617L238.161 410.152L212.143 416.864L186.731 423.42L216.805 478.617ZM21.4437 410.576L5.44063 468.813L44.5959 458.712L21.4437 410.576ZM296.72 396.012L289.244 419.311L273.811 467.412L331.872 454.923L296.72 396.012ZM295.532 395.351L283.029 398.576L240.165 409.635L272.652 466.659L287.8 419.448L295.532 395.351ZM718.293 373.871L704.636 408.801L682.564 465.256L707.324 460.997L776.691 449.067L765.529 434.695L718.293 373.871ZM717.027 373.447L682.133 380.952L628.385 392.513L652.764 425.768L681.332 464.74L703.468 408.124L717.027 373.447ZM63.4797 397.883L46.5041 458.219L88.2907 447.439L70.4401 411.784L63.4797 397.883ZM62.3328 397.032L22.212 409.096L45.3849 457.275L62.3328 397.032ZM358.529 380.016L333.92 454.483L373.963 445.871L396.703 440.98L369.723 397.893L358.529 380.016ZM357.324 379.411L327.021 387.227L297.565 394.827L332.745 453.784L357.324 379.411ZM818.113 352.352L778.968 448.675L882.86 430.808L866.852 411.412L818.113 352.352ZM816.824 351.983L770.712 361.9L719.277 372.963L766.921 434.312L777.717 448.215L816.824 351.983ZM108.263 384.363L100.551 411.111L90.2213 446.941L122.669 438.569L134.907 435.412L108.263 384.363ZM107.103 383.569L88.7151 389.099L64.2547 396.455L70.5536 409.035L89.0896 446.053L99.4369 410.163L107.103 383.569ZM425.293 362.74L400.593 435.22L398.783 440.532L442.999 431.023L466.871 425.888L458.436 413.077L425.293 362.74ZM424.071 362.189L391.231 370.663L359.389 378.877L370.507 396.632L397.595 439.891L400.169 432.331L424.071 362.189ZM156.071 369.936L136.859 434.908L184.741 422.555L182.519 418.477L156.071 369.936ZM154.896 369.199L131.78 376.149L109.046 382.985L135.715 434.079L154.896 369.199ZM928.281 328.609L919.075 350.361L885.196 430.407L1000.43 410.589L928.281 328.609ZM926.967 328.293L819.129 351.488L867.664 410.299L883.921 429.997L917.528 350.593L926.967 328.293ZM497.633 344.027L482.464 387.135L468.988 425.433L543.064 409.501L514.899 368.909L497.633 344.027ZM496.393 343.532L426.171 361.648L460.716 414.115L467.78 424.845L481.229 386.625L496.393 343.532ZM207.221 354.501L186.72 422.045L238.143 408.779L225.456 386.509L207.221 354.501ZM206.035 353.821L197.233 356.468L156.864 368.608L182.591 415.82L185.56 421.271L206.035 353.821ZM576.276 323.687L545.22 409.037L626.092 391.641L610.057 369.767L576.276 323.687ZM575.016 323.248L555.953 328.167L498.531 342.98L514.692 366.271L543.996 408.504L575.016 323.248ZM262.076 337.955L240.148 408.261L283.485 397.081L295.507 393.98L262.076 337.955ZM38.5917 348.176L30.6792 376.969L22.2355 407.696L62.3531 395.633L50.6161 372.191L38.5917 348.176ZM260.873 337.331L208.027 353.223L226.361 385.404L238.975 407.543L260.873 337.331ZM81.636 333.348L64.2755 395.055L88.7 387.711L107.119 382.172L81.636 333.348ZM80.464 332.593L39.3469 346.705L51.3573 370.695L63.1281 394.204L80.464 332.593ZM321.056 320.168L305.447 368.813L297.54 393.455L357.292 378.041L331.573 336.968L321.056 320.168ZM319.836 319.603L291.019 328.267L262.893 336.724L296.352 392.793L303.952 369.109L319.836 319.603ZM662.087 301.499L658.896 309.963L628.295 391.168L682.123 379.591L716.923 372.105L689.064 336.235L662.087 301.499ZM660.805 301.115L624.877 310.384L577.196 322.685L611.32 369.235L627.049 390.689L658.436 307.404L660.805 301.115ZM127.525 317.548L109.063 381.588L154.908 367.803L127.525 317.548ZM126.338 316.849L82.3995 331.928L107.903 380.795L126.338 316.849ZM384.641 300.997L379.584 316.299L359.357 377.508L394.875 368.344L424.031 360.823L384.641 300.997ZM383.405 300.488L346.884 311.469L321.888 318.985L332.535 335.988L358.152 376.901L378.567 315.132L383.405 300.488ZM756.091 277.199L726.327 353.325L719.172 371.621L770.504 360.581L816.704 350.645L756.091 277.199ZM754.785 276.871L724.181 284.765L663.031 300.541L690.021 335.296L717.905 371.197L725.308 352.264L754.785 276.871ZM176.551 300.667L156.876 367.211L198.68 354.641L206.039 352.428L186.575 318.264L176.551 300.667ZM175.349 300.028L128.298 316.177L155.703 366.475L175.349 300.028ZM453.395 280.273L426.131 360.281L496.343 342.167L453.395 280.273ZM452.14 279.819L439.071 283.748L385.491 299.861L424.909 359.731L452.14 279.819ZM229.045 282.6L221.164 308.565L208.032 351.829L260.873 335.939L239.475 300.079L229.045 282.6ZM227.828 282.016L177.333 299.347L187.503 317.196L206.845 351.148L221.804 301.86L227.828 282.016ZM859.517 250.467L819.009 350.148L926.831 326.959L859.517 250.467ZM858.188 250.195L757.063 276.283L817.72 349.779L858.188 250.195ZM56.1073 284.436L52.8921 296.136L39.3875 345.283L45.7953 343.083L78.9136 331.716L80.5 331.172L56.1073 284.436ZM54.9197 283.721L15.4344 298.945L38.2271 344.468L51.6052 295.785L54.9197 283.721ZM527.975 257.796L498.481 341.616L556.027 326.769L574.956 321.885L527.975 257.796ZM526.7 257.4L454.261 279.181L497.241 341.121L526.7 257.4ZM285.391 263.209L262.895 335.332L288.003 327.781L319.829 318.211L315.327 311.019L285.391 263.209ZM284.156 262.684L229.837 281.327L240.476 299.155L261.691 334.708L284.156 262.684ZM100.195 267.385L85.362 320.105L82.4355 330.508L126.37 315.428L100.195 267.385ZM98.9943 266.729L94.3459 268.521L56.8495 282.977L81.2636 329.752L84.4912 318.28L98.9943 266.729ZM609.151 233.337L577.136 321.324L623.939 309.249L660.733 299.757L614.248 239.9L609.151 233.337ZM607.856 232.996L528.86 256.751L575.876 320.885L607.856 232.996ZM346.025 242.348L328.695 296.359L321.881 317.595L346.944 310.059L383.391 299.099L363.221 268.464L346.025 242.348ZM344.775 241.88L286.196 261.984L316.201 309.905L320.661 317.028L327.579 295.472L344.775 241.88ZM147.229 249.2L128.33 314.756L175.376 298.608L166.999 283.901L147.229 249.2ZM146.015 248.601L131.129 254.34L100.946 265.977L127.143 314.057L146.015 248.601ZM697.843 206.619L664.436 295.263L662.959 299.183L728.395 282.301L754.701 275.515L697.843 206.619ZM696.524 206.335L652.469 219.58L610.059 232.333L616.439 240.547L661.677 298.8L663.703 293.427L696.524 206.335ZM411.46 219.839L397.423 262.316L385.476 298.472L438.711 282.465L452.117 278.433L417.889 229.104L411.46 219.839ZM410.192 219.427L346.845 241.169L363.985 267.2L384.24 297.961L396.197 261.781L410.192 219.427ZM197.516 229.761L177.36 297.927L227.851 280.6L198.779 231.879L197.516 229.761ZM31.6093 237.5L15.4937 297.493L54.9771 282.271L44.9172 262.996L31.6093 237.5ZM196.284 229.22L147.989 247.84L167.285 281.711L176.16 297.287L196.284 229.22ZM74.0027 219.315L59.6093 271.692L56.9068 281.527L97.0303 266.057L99.0479 265.279L91.6651 251.732L74.0027 219.315ZM72.7875 218.701L52.5344 227.364L32.3339 236.003L45.5833 261.391L55.7193 280.812L72.7875 218.701ZM251.405 208.935L229.861 279.909L284.175 261.268L255.743 215.863L251.405 208.935ZM250.157 208.451L227.536 217.172L198.287 228.449L200.167 231.6L228.644 279.325L250.157 208.451ZM482.289 195.479L459.091 263.556L454.239 277.795L526.671 256.016L482.289 195.479ZM481.001 195.125L416.903 217.123L412.297 218.704L419.223 228.685L452.984 277.34L458.459 261.277L481.001 195.125ZM795.143 177.313L756.979 274.927L858.088 248.841L795.143 177.313ZM793.8 177.084L698.777 205.657L755.673 274.6L793.8 177.084ZM119.169 199.947L111.792 226.165L101 264.527L123.284 255.936L146.064 247.153L119.169 199.947ZM117.94 199.392L82.3672 214.605L74.7339 217.869L99.7979 263.871L110.603 225.471L117.94 199.392ZM309.296 186.563L286.215 260.568L344.785 240.465L325.415 211.044L309.296 186.563ZM308.032 186.139L275.431 198.707L252.185 207.669L256.776 215L284.981 260.041L308.032 186.139ZM559.208 169.029L528.829 255.367L607.815 231.616L559.208 169.029ZM557.899 168.733L542.237 174.109L483.144 194.389L527.555 254.971L557.899 168.733ZM167.389 179.273L148.04 246.392L196.329 227.773L167.389 179.273ZM166.144 178.777L148.195 186.453L119.909 198.551L146.824 245.793L166.144 178.777ZM371.655 162.472L346.857 239.755L377.68 229.176L410.196 218.016L398.128 200.624L371.655 162.472ZM370.372 162.105L341.033 173.415L310.091 185.345L326.197 209.808L345.607 239.287L370.372 162.105ZM48.8792 173.207L32.4093 234.521L72.8615 217.22L48.8792 173.207ZM47.6505 172.637L8.78751 190.889L16.3312 205.343L31.2093 233.848L47.6505 172.637ZM643.036 140.209L615.801 215.057L610.017 230.953L623.499 226.9L696.472 204.956L650.392 149.123L643.036 140.209ZM641.704 139.969L606.077 152.197L560.084 167.984L608.724 230.612L614.956 213.483L641.704 139.969ZM218.984 157.157L213.264 176.501L198.332 227.001L227.319 215.828L250.199 207.007L218.984 157.157ZM217.721 156.719L192.044 167.7L168.137 177.924L196.515 225.48L197.1 226.461L211.797 176.757L217.721 156.719ZM439.019 136.451L419.76 194.724L412.301 217.293L416.679 215.792L480.999 193.716L439.019 136.451ZM437.716 136.143L372.464 161.299L399.617 200.429L411.033 216.881L418.439 194.473L437.716 136.143ZM92.2901 152.768L89.3593 163.429L74.8068 216.388L79.9584 214.185L118.009 197.912L92.2901 152.768ZM91.0473 152.259L49.5921 171.725L73.5927 215.775L88.1099 162.948L91.0473 152.259ZM274.32 133.44L252.227 206.225L275.08 197.413L308.067 184.696L274.32 133.44ZM273.04 133.061L251.672 142.2L246.197 144.541L219.743 155.855L250.979 205.741L273.04 133.061ZM734.749 108.684L698.724 204.279L793.733 175.712L734.749 108.684ZM733.392 108.501L689.813 123.457L675.673 128.311L643.935 139.204L651.548 148.429L697.405 203.995L733.392 108.501ZM138.572 130.981L119.979 197.069L147.777 185.181L166.211 177.299L138.572 130.981ZM137.315 130.532L104.409 145.984L93.0109 151.336L118.749 196.515L137.315 130.532ZM512.012 108.257L483.141 192.981L545.732 171.499L557.887 167.328L512.012 108.257ZM510.689 108.007L474.779 121.852L439.844 135.321L481.852 192.627L510.689 108.007ZM24.7604 128.94L8.88229 189.371L27.6751 180.547L47.7427 171.121L24.7604 128.94ZM333.819 107.943L317.021 161.795L310.127 183.901L341.032 171.987L370.401 160.664L351.036 132.756L333.819 107.943ZM332.52 107.623L275.089 132.184L308.861 183.477L315.581 161.932L332.52 107.623ZM188.02 107.709L171.641 164.523L168.204 176.447L192.08 166.236L217.784 155.243L191.272 112.9L188.02 107.709ZM186.745 107.319L139.301 129.599L166.959 175.949L169.813 166.048L186.745 107.319ZM66.5208 107.535L52.0969 161.229L49.6844 170.209L91.1364 150.743L72.8584 118.659L66.5208 107.535ZM65.2636 107.072L58.874 110.34L25.4557 127.428L48.4552 169.641L50.262 162.916L65.2636 107.072ZM591.376 77.6119L560.071 166.577L603.576 151.647L641.681 138.568L591.376 77.6119ZM590.031 77.4186L526.939 101.743L512.857 107.172L558.761 166.281L590.031 77.4186ZM397.971 80.4573L372.495 159.857L437.737 134.704L397.971 80.4573ZM396.653 80.196L365.308 93.6013L334.603 106.732L351.857 131.6L371.211 159.491L396.653 80.196ZM240.971 82.7907L230.805 117.172L219.805 154.379L245.384 143.439L273.1 131.585L240.971 82.7907ZM239.679 82.4586L188.759 106.373L192.2 111.869L218.544 153.94L229.581 116.611L239.679 82.4586ZM110.984 84.7453L93.0995 149.821L104.545 144.447L137.4 129.017L110.984 84.7453ZM109.71 84.344L77.9213 100.6L67.2219 106.071L79.7864 128.125L91.8568 149.312L108.981 86.9946L109.71 84.344ZM677.98 44.1733L643.912 137.803L733.357 107.104L677.98 44.1733ZM676.611 44.0399L633.713 60.5773L592.243 76.5666L642.579 137.563L676.611 44.0399ZM467.341 50.7386L439.867 133.883L510.704 106.572L467.341 50.7386ZM466.004 50.536L461.211 52.5853L398.769 79.2907L406.765 90.1973L438.564 133.575L466.004 50.536ZM297.811 56.0479L280.248 113.908L275.148 130.709L332.573 106.149L314.129 79.5666L297.811 56.0479ZM296.499 55.7773L257.684 74.0039L241.72 81.5L248.804 92.26L273.869 130.331L278.905 113.74L296.499 55.7773ZM158.421 60.436L139.855 126.425L139.388 128.084L162.373 117.291L186.829 105.805L158.421 60.436ZM157.131 60.0946L128.351 74.8106L111.692 83.3306L138.129 127.635L157.131 60.0946ZM41.7912 64.128L25.5656 125.873L60.436 108.044L65.3729 105.519L41.7912 64.128ZM40.5213 63.716L2.26667 84.8679L8.69323 96.664L24.3245 125.352L40.5213 63.716ZM542.597 18.5039L512.872 105.736L527.813 99.9759L590.035 75.988L574.167 56.7586L542.597 18.5039ZM541.237 18.3613L478.324 45.2679L468.157 49.6146L511.549 105.485L541.237 18.3613ZM358.981 27.272L347.709 63.4093L334.655 105.259L396.7 78.7253L358.981 27.272ZM357.649 27.06L343.337 33.7813L298.569 54.8039L314.832 78.2399L333.357 104.939L346.4 63.124L357.649 27.06ZM209.141 34.4466L188.841 104.86L239.759 80.9479L238.257 78.6679L209.141 34.4466ZM84.5437 40.4373L80.1489 56.7973L67.3312 104.517L78.0792 99.0213L109.817 82.7907L84.5437 40.4373ZM207.835 34.1653L191.871 42.328L159.137 59.0679L187.567 104.469L207.835 34.1653ZM83.2588 40.0839L42.476 62.6346L66.0745 104.055L78.9667 56.0613L83.2588 40.0839ZM18.0421 22.4413L2.39531 83.272L40.6479 62.1213L37.1812 56.036L18.0421 22.4413ZM130.096 15.2L111.799 81.7773L128.471 73.252L157.236 58.5426L130.096 15.2ZM128.792 14.9066L85.2355 38.9907L110.525 81.3759L128.792 14.9066ZM263.499 6.59996L241.799 79.9907L257.048 72.8293L296.575 54.2666L263.499 6.59996ZM262.173 6.3786L209.868 33.1253L240.507 79.6586L262.173 6.3786Z" fill="#3E3B38" fill-opacity="0.4"/>
</svg>
